<?xml version="1.0" encoding="utf-8" ?>
<svg xmlns="http://www.w3.org/2000/svg" xmlns:xlink="http://www.w3.org/1999/xlink" width="1024" height="1024">
	<path fill="#0C2649" d="M275.052 272.864C277.389 272.675 280.207 272.061 282.241 273.52C283.012 274.074 283.507 274.789 284.045 275.55L285.136 275.56L284.243 275.954L284.84 276.728C285.281 275.616 285.614 274.525 285.935 273.375C285.991 275.035 286.368 277.335 285.644 278.852L285.3 278.987C281.935 279.393 278.374 279.83 275.004 279.279C271.499 278.705 269.036 277.007 267.031 274.112C269.416 273.356 272.533 273.351 275.052 272.864Z"/>
	<defs>
		<linearGradient id="gradient_0" gradientUnits="userSpaceOnUse" x1="663.31854" y1="934.31635" x2="664.75122" y2="942.06085">
			<stop offset="0" stop-color="#203B4C"/>
			<stop offset="1" stop-color="#373F5C"/>
		</linearGradient>
	</defs>
	<path fill="url(#gradient_0)" d="M704.384 930.325C706.235 929.672 707.628 929.244 709.602 929.297C702.726 934.357 692.607 938.318 684.117 939.55C675.55 940.793 666.269 940.253 657.606 940.301L607.78 940.343L545.167 940.308C536.35 940.284 524.785 941.082 516.276 940.101C523.11 938.332 530.957 938.98 538.006 938.898Q553.885 938.688 569.766 938.683C593.797 938.673 617.88 938.28 641.902 938.507C650.479 938.588 668.419 940.113 676.158 937.956C683.612 937.17 693.652 936.392 700.087 932.24C701.562 931.824 703 930.995 704.384 930.325Z"/>
	<path fill="#135D98" d="M748.402 248.803C751.271 248.953 753.56 248.865 755.742 250.984C757.329 254.953 758.099 321.567 756.231 325.757C755.244 327.972 753.476 328.931 751.423 330.029C750.785 329.822 749.606 329.66 749.203 329.097C746.958 325.968 747.519 256.404 748.402 248.803Z"/>
	<path fill="#0C2649" d="M738.395 248.896L748.402 248.803C747.519 256.404 746.958 325.968 749.203 329.097C749.606 329.66 750.785 329.822 751.423 330.029C747.38 329.821 743.052 329.725 739.038 330.218L738.486 330.13C738.224 329.793 738.049 329.623 737.931 329.162C736.634 324.059 737.484 305.731 737.474 299.126C737.452 283.954 736.724 268.42 737.491 253.288C737.57 251.742 737.643 250.279 738.395 248.896Z"/>
	<defs>
		<linearGradient id="gradient_1" gradientUnits="userSpaceOnUse" x1="281.9595" y1="243.06049" x2="266.5097" y2="242.67549">
			<stop offset="0" stop-color="#114C6D"/>
			<stop offset="1" stop-color="#238CB2"/>
		</linearGradient>
	</defs>
	<path fill="url(#gradient_1)" d="M284.767 212.978C286.653 214.862 286.173 217.813 286.178 220.355L286.04 254.946C286.031 260.983 286.465 267.377 285.935 273.375C285.614 274.525 285.281 275.616 284.84 276.728L284.243 275.954L285.136 275.56L284.045 275.55C283.507 274.789 283.012 274.074 282.241 273.52C280.207 272.061 277.389 272.675 275.052 272.864C272.533 273.351 269.416 273.356 267.031 274.112C266.489 272.316 266.466 270.531 266.418 268.67C266.165 258.849 266.373 248.966 266.391 239.139C266.401 233.582 265.854 227.362 266.744 221.897C267.055 219.989 267.649 218.712 268.972 217.325C275.216 210.854 280.17 215.714 284.767 212.978Z"/>
	<defs>
		<linearGradient id="gradient_2" gradientUnits="userSpaceOnUse" x1="285.19531" y1="245.51407" x2="274.92664" y2="245.44827">
			<stop offset="0" stop-color="#0E3356"/>
			<stop offset="1" stop-color="#196788"/>
		</linearGradient>
	</defs>
	<path fill="url(#gradient_2)" d="M284.767 212.978C286.653 214.862 286.173 217.813 286.178 220.355L286.04 254.946C286.031 260.983 286.465 267.377 285.935 273.375C285.614 274.525 285.281 275.616 284.84 276.728L284.243 275.954L285.136 275.56L284.045 275.55C283.507 274.789 283.012 274.074 282.241 273.52C280.207 272.061 277.389 272.675 275.052 272.864C274.367 271.616 274.237 271.566 274.465 270.183C275.04 269.91 275.57 269.691 276.193 269.549C276.951 269.377 277.711 269.244 278.396 268.855C280.255 267.797 281.282 265.993 281.737 263.96C282.848 259.003 280.682 250.921 280.344 245.759C280.061 241.451 280.295 237.064 279.821 232.778C279.723 231.898 279.637 231.056 279.067 230.339C278.563 229.705 278.765 229.864 278.023 229.747C277.881 234.922 275.639 240.738 278.223 245.569C278.132 244.613 278.258 244.932 277.848 244.142C274.506 237.714 276.687 235.669 276.188 229.336C275.956 226.386 274.765 223.674 274.276 220.793C274.036 219.375 274.261 218.934 275.135 217.851L274.463 217.199C272.503 216.852 270.931 217.038 268.972 217.325C275.216 210.854 280.17 215.714 284.767 212.978Z"/>
	<path fill="#1A3B67" d="M294.635 910.573Q296.816 911.689 298.961 912.873C311.001 925.617 325.27 932.636 342.994 933.109C346.903 933.213 366.521 932.394 368.497 933.123L366.855 933.639L367.679 934.256L367.519 934.164C380.509 935.254 394.042 934.688 407.079 934.755L631.492 935.746C638.272 935.774 676.474 937.331 680.359 936.181C686.594 934.337 693.672 933.618 700.087 932.24C693.652 936.392 683.612 937.17 676.158 937.956C668.419 940.113 650.479 938.588 641.902 938.507C617.88 938.28 593.797 938.673 569.766 938.683Q553.885 938.688 538.006 938.898C530.957 938.98 523.11 938.332 516.276 940.101C509.287 940.8 501.617 940.202 494.559 940.196L448.875 940.139L381.853 939.994C368.958 939.972 355.808 940.417 342.94 939.645C327.2 938.701 311.042 930.22 300.647 918.548C298.471 916.09 296.202 913.46 294.635 910.573Z"/>
	<path fill="#424F64" d="M294.635 910.573Q296.816 911.689 298.961 912.873C311.001 925.617 325.27 932.636 342.994 933.109C346.903 933.213 366.521 932.394 368.497 933.123L366.855 933.639L367.679 934.256L367.519 934.164C380.509 935.254 394.042 934.688 407.079 934.755L631.492 935.746C638.272 935.774 676.474 937.331 680.359 936.181C686.594 934.337 693.672 933.618 700.087 932.24C693.652 936.392 683.612 937.17 676.158 937.956C651.626 936.885 627.087 937.56 602.548 937.241Q521.373 936.222 440.192 936.261C426.026 936.306 411.833 936.968 397.664 937.178C388.908 937.307 380.137 937.03 371.38 936.993C364.883 936.967 358.122 937.759 351.681 937.202C341.684 936.337 330.681 935.708 321.357 931.731C316.513 929.666 304.177 919.26 302.623 918.759C301.993 918.556 301.305 918.618 300.647 918.548C298.471 916.09 296.202 913.46 294.635 910.573Z"/>
	<path fill="#7A808D" d="M284.767 212.978C283.822 201.63 284.745 189.767 284.709 178.358C284.626 152.1 280.772 125.081 298.887 103.433C309.872 90.3068 326.356 81.0952 343.513 79.7198C351.172 79.1058 359.037 79.3991 366.719 79.3779L406.814 79.2678L547.541 79.4955L643.311 79.4665L671.364 79.4862C678.047 79.4993 684.838 79.2629 691.471 80.1942C701.067 81.5419 710.91 86.779 718.195 93.0468Q719.303 94.0089 720.362 95.0244Q721.422 96.0398 722.43 97.106Q723.438 98.1722 724.393 99.2867Q725.347 100.401 726.246 101.561Q727.144 102.721 727.985 103.924Q728.826 105.127 729.606 106.369Q730.387 107.612 731.105 108.891Q731.824 110.171 732.478 111.484Q733.133 112.797 733.723 114.141Q734.312 115.484 734.835 116.856Q735.358 118.227 735.813 119.622Q736.267 121.017 736.653 122.433Q737.039 123.848 737.354 125.281Q737.67 126.714 737.915 128.161Q738.16 129.608 738.334 131.065Q738.507 132.522 738.609 133.986C739.26 142.98 738.898 152.215 738.901 161.231L738.881 207.994C738.876 216.024 739.878 242.73 738.395 248.896C737.643 250.279 737.57 251.742 737.491 253.288C736.724 268.42 737.452 283.954 737.474 299.126C737.484 305.731 736.634 324.059 737.931 329.162C738.049 329.623 738.224 329.793 738.486 330.13L739.038 330.218C740.193 335.643 739.572 342.191 739.567 347.744L739.51 377.966C735.659 372.656 731.618 367.645 727.07 362.911Q727.399 282.34 726.579 201.773Q726.527 183.225 726.668 164.68C726.767 155.367 727.725 145.259 725.959 136.099C723.997 125.918 718.083 116.148 710.985 108.732C700.659 97.9437 688.506 94.6346 673.863 94.4089C657.318 94.154 640.736 94.4989 624.186 94.4334L450.344 94.4652L381.434 94.7C368.067 94.7248 353.453 93.601 340.253 95.7499C330.104 97.4022 321.027 102.192 313.706 109.391C306.161 116.812 300.459 126.412 298.298 136.819C296.178 147.022 296.812 157.745 296.826 168.111L296.766 200.241C296.543 253.338 297.412 306.44 296.933 359.533L291.196 365.856C289.477 368.225 287.379 372.558 285.135 374.181L284.573 373.121L283.183 373.329C283.127 366.215 282.466 358.564 283.379 351.534C280.958 351.553 278.392 351.671 275.996 351.334C271.896 350.757 269.479 348.764 267.143 345.474C265.043 338.651 265.629 305.829 266.161 297.412C266.374 294.047 267.013 292.82 269.523 290.586C274.365 287.614 278.014 288.435 283.294 288.328C284.436 288.305 284.286 288.436 285.16 287.553C284.626 284.724 284.775 281.803 285.3 278.987L285.644 278.852C286.368 277.335 285.991 275.035 285.935 273.375C286.465 267.377 286.031 260.983 286.04 254.946L286.178 220.355C286.173 217.813 286.653 214.862 284.767 212.978Z"/>
	<path fill="#9793A0" d="M286.238 290.274C286.732 294.423 286.426 298.603 286.812 302.758C287.201 306.933 288.418 310.99 288.562 315.182C288.702 319.247 287.686 323.5 288.021 327.497C288.139 328.912 288.86 334.388 289.461 335.402C289.7 331.29 289.239 326.155 290.238 322.206L290.718 322.508C290.154 335.52 293.46 354.199 291.196 365.856C289.477 368.225 287.379 372.558 285.135 374.181L284.573 373.121C285.282 368.617 284.794 363.671 285.025 359.091C285.766 344.393 285.855 329.789 285.9 315.077C285.925 306.856 285.614 298.467 286.238 290.274Z"/>
	<path fill="#1A3B67" d="M285.16 287.553C286.15 288.235 286.016 289.132 286.238 290.274C285.614 298.467 285.925 306.856 285.9 315.077C285.855 329.789 285.766 344.393 285.025 359.091C284.794 363.671 285.282 368.617 284.573 373.121L283.183 373.329C283.127 366.215 282.466 358.564 283.379 351.534C280.958 351.553 278.392 351.671 275.996 351.334C271.896 350.757 269.479 348.764 267.143 345.474Q268.653 345.01 270.158 344.528C273.748 343.373 277.7 342.275 279.457 338.609C283.144 330.922 282.886 305.856 279.668 297.772C277.922 293.386 273.454 292.31 269.523 290.586C274.365 287.614 278.014 288.435 283.294 288.328C284.436 288.305 284.286 288.436 285.16 287.553Z"/>
	<defs>
		<linearGradient id="gradient_3" gradientUnits="userSpaceOnUse" x1="278.16986" y1="317.67041" x2="266.36172" y2="317.76514">
			<stop offset="0" stop-color="#18567C"/>
			<stop offset="1" stop-color="#2280A7"/>
		</linearGradient>
	</defs>
	<path fill="url(#gradient_3)" d="M269.523 290.586C273.454 292.31 277.922 293.386 279.668 297.772C282.886 305.856 283.144 330.922 279.457 338.609C277.7 342.275 273.748 343.373 270.158 344.528Q268.653 345.01 267.143 345.474C265.043 338.651 265.629 305.829 266.161 297.412C266.374 294.047 267.013 292.82 269.523 290.586Z"/>
	<path fill="#0C2649" d="M296.933 359.533C297.412 306.44 296.543 253.338 296.766 200.241L296.826 168.111C296.812 157.745 296.178 147.022 298.298 136.819C300.459 126.412 306.161 116.812 313.706 109.391C321.027 102.192 330.104 97.4022 340.253 95.7499C353.453 93.601 368.067 94.7248 381.434 94.7L450.344 94.4652L624.186 94.4334C640.736 94.4989 657.318 94.154 673.863 94.4089C688.506 94.6346 700.659 97.9437 710.985 108.732C718.083 116.148 723.997 125.918 725.959 136.099C727.725 145.259 726.767 155.367 726.668 164.68Q726.527 183.227 726.579 201.773Q727.399 282.34 727.07 362.911C731.618 367.645 735.659 372.656 739.51 377.966C745.51 393.342 749.381 411.715 742.539 427.623C741.137 430.883 739.392 433.712 739.038 437.339C739.878 466.833 739.433 496.425 739.438 525.932L739.495 671.646L739.331 809.363C739.164 826.673 739.791 844.128 739.003 861.413C739.076 867.026 740.073 881.941 738.604 886.39C735.735 902.998 725.095 918.707 711.296 928.294C710.743 928.678 710.194 928.98 709.602 929.297C707.628 929.244 706.235 929.672 704.384 930.325C703 930.995 701.562 931.824 700.087 932.24C693.672 933.618 686.594 934.337 680.359 936.181C676.474 937.331 638.272 935.774 631.492 935.746L407.079 934.755C394.042 934.688 380.509 935.254 367.519 934.164L367.679 934.256L366.855 933.639L368.497 933.123C366.521 932.394 346.903 933.213 342.994 933.109C325.27 932.636 311.001 925.617 298.961 912.873Q296.816 911.689 294.635 910.573C290.09 904.568 285.911 895.333 284.903 887.802C283.899 886.201 283.816 882.316 283.56 880.318C282.807 849.954 283.172 819.433 283.479 789.057C282.896 761.831 283.449 734.491 283.47 707.253L283.446 522.189C283.35 494.135 283.674 465.97 283.015 437.928C282.771 427.501 277.561 418.233 277.263 407.242C277.111 401.658 277.667 395.628 279.129 390.226C280.733 384.298 283.48 379.669 283.183 373.329L284.573 373.121L285.135 374.181C287.379 372.558 289.477 368.225 291.196 365.856L296.933 359.533Z"/>
	<path fill="#E48A31" d="M569.569 110.544C570.814 110.503 572.168 110.403 573.389 110.679C575.473 111.149 577.695 112.602 578.836 114.415C580.047 116.338 580.256 118.659 579.62 120.82C578.676 124.026 576.358 125.694 573.585 127.276C572.531 127.441 571.42 127.569 570.369 127.329C568.141 126.822 566.035 125.452 564.856 123.472C563.545 121.27 563.29 118.493 564.023 116.052C564.913 113.092 566.987 111.923 569.569 110.544Z"/>
	<path fill="#424F64" d="M297.062 622.939C297.821 631.015 297.453 639.392 297.452 647.51L297.432 688.584L297.523 820.011L297.278 854.176C297.189 864.485 296.828 874.897 298.359 885.124C295.486 880.71 295.302 862.468 295.222 856.777C294.991 840.214 296.707 823.587 296.815 807.027L296.828 637.245C296.813 632.483 296.675 627.688 297.062 622.939Z"/>
	<path fill="#424F64" d="M310.08 908.518C317.992 915.256 326.035 921.654 336.423 923.975C344.685 925.821 353.908 925.118 362.341 925.105L400.563 924.985L515.409 925.185C534.44 925.266 555.008 924.498 573.833 925.552C568.421 927.382 548.426 926.095 541.753 926.085L447.627 925.734C432.235 925.73 416.812 925.551 401.423 925.772C383.74 926.026 366.07 926.642 348.374 926.166C343.924 926.046 339.736 925.655 335.347 924.911C336.304 925.348 336.951 925.656 337.768 926.337C331.684 925.649 324.938 922.802 319.649 919.793C317.529 915.495 312.649 912.765 310.08 908.518Z"/>
	<path fill="#535C6C" d="M294.037 811.334C296.578 805.269 295.148 775.25 295.204 767.235L296.089 673.936C296.317 661.754 295.84 649.386 296.828 637.245L296.815 807.027C296.707 823.587 294.991 840.214 295.222 856.777C295.302 862.468 295.486 880.71 298.359 885.124C299.86 892.117 302.074 897.678 306.263 903.538C307.437 905.18 309.077 906.802 310.08 908.518C312.649 912.765 317.529 915.495 319.649 919.793C316.148 918.014 313.151 915.605 310.388 912.826C304.036 906.436 298.219 896.705 295.945 887.974C292.484 874.688 294.146 859.324 294.178 845.65C294.204 834.208 293.936 822.779 294.037 811.334Z"/>
	<path fill="#535C6C" d="M480.719 114.149C492.453 113.768 504.288 114.062 516.032 114.062C522.874 114.061 531.038 113.236 537.737 114.553C539.648 114.929 541.109 116.014 542.008 117.749C542.573 118.84 542.892 119.87 542.406 121.06C541.753 122.658 540.842 123.123 539.359 123.836Q537.936 123.931 536.51 123.956C524.917 124.115 513.313 123.973 501.717 124.063C495.123 124.114 487.278 124.977 480.804 123.914C479.759 123.743 479.136 123.406 478.396 122.613C477.684 121.849 477.459 120.866 477.549 119.833C477.783 117.165 478.722 115.849 480.719 114.149Z"/>
	<path fill="#62636D" d="M295.192 448.341C296.292 449.365 297.373 449.918 297.528 451.5C298.069 457.002 297.549 463.112 297.527 468.662L297.133 511.185C296.919 548.427 297.529 585.707 297.062 622.939C296.675 627.688 296.813 632.483 296.828 637.245C295.84 649.386 296.317 661.754 296.089 673.936L295.204 767.235C295.148 775.25 296.578 805.269 294.037 811.334C293.485 804.253 293.954 796.834 293.923 789.705C293.839 770.403 294.266 751.081 294.003 731.785C294.889 726.93 294.311 721.252 294.306 716.288L294.319 684.419C294.427 661.281 295.174 638.119 295.131 614.988L294.028 512.811Q293.622 491.864 293.662 470.912C293.7 464.9 293.467 458.642 293.984 452.661C294.12 451.089 294.543 449.77 295.192 448.341Z"/>
	<defs>
		<linearGradient id="gradient_4" gradientUnits="userSpaceOnUse" x1="714.8194" y1="451.48575" x2="704.46771" y2="407.83322">
			<stop offset="0" stop-color="#AEADB8"/>
			<stop offset="1" stop-color="#D8D8DD"/>
		</linearGradient>
	</defs>
	<path fill="url(#gradient_4)" d="M737.66 394.838C740.454 409.169 738.763 423.709 730.517 435.988C723.029 447.138 711.733 453.953 698.607 456.404C692.207 457.599 685.989 457.616 679.544 456.846C681.899 449.955 682.865 443.191 684.224 436.091L684.968 437.286C685.552 437.622 686.085 437.834 686.76 437.915C696.869 439.133 711.122 433.613 719.169 427.691C730.859 419.09 735.473 408.776 737.66 394.838Z"/>
	<defs>
		<linearGradient id="gradient_5" gradientUnits="userSpaceOnUse" x1="317.57581" y1="459.2366" x2="314.26584" y2="419.35547">
			<stop offset="0" stop-color="#AEABB3"/>
			<stop offset="1" stop-color="#E3E0E2"/>
		</linearGradient>
	</defs>
	<path fill="url(#gradient_5)" d="M337.57 406.938L337.625 407.541C339.137 425.736 336.597 440.329 343.639 458.217C328.978 459.306 316.359 456.602 305.06 446.742C294.913 437.886 288.725 426.54 286.472 413.297C288.513 416.024 288.711 419.876 290.222 422.966C294.174 423.098 298.454 421.02 302.401 420.396C306.856 419.692 331.95 418.292 334.924 419.344C335.188 419.437 335.444 419.553 335.704 419.657L336.084 419.033L336.601 419.156C337.117 415.147 337.169 410.981 337.57 406.938Z"/>
	<path fill="#2499CC" d="M708.755 836.275C708.622 829.213 709.334 822.518 711.386 815.741C712.133 813.276 714.246 810.025 714.301 807.585C714.634 792.612 714.216 777.559 714.274 762.576C714.322 750.411 714.864 738.219 714.996 726.047C715.117 714.915 714.415 703.338 715.418 692.272C716.221 734.51 715.683 776.953 715.415 819.202L715.26 848.071C715.252 856.418 715.793 865.312 714.214 873.526C712.73 881.246 708.007 888.538 702.644 894.146C693.469 903.741 682.285 908.395 669.075 908.618C661.027 908.754 652.97 908.464 644.92 908.528C644.182 881.982 644.636 855.286 644.78 828.728L644.856 804.445C644.852 799.636 644.551 794.61 644.993 789.828C647.274 794.936 644.878 868.012 645.693 880.684C645.895 883.828 647.784 886.456 648.186 889.497C648.479 891.707 647.505 894.239 648.637 896.217L649.374 894.832L649.85 894.722C651.049 897.785 652.181 901.32 654.713 903.561C655.646 904.387 656.478 904.584 657.691 904.466C660.335 904.21 664.119 902.322 665.757 900.234C665.935 900.008 666.098 899.77 666.269 899.538C668.18 899.416 670.406 899.258 672.084 898.289C675.649 896.229 679.33 896.227 683.142 894.916C687.962 884.981 697.864 882.33 702.43 871.385C706.237 862.259 704.476 842.805 708.187 837.116C708.372 836.833 708.566 836.556 708.755 836.275Z"/>
	<path fill="#1A3B67" d="M457.719 545.847Q485.794 545.783 513.866 546.154C521.352 546.303 528.844 546.822 536.323 546.922C543.972 547.024 551.618 546.659 559.274 546.795C559.508 547.738 559.404 548.218 559.269 549.152C558.402 555.132 559.221 562.389 559.255 568.5C552.861 568.49 537.736 567.579 532.343 568.697C539.767 569.615 547.606 568.301 555.098 569.061C545.735 569.974 536.145 569.275 526.741 569.606Q478.365 569.367 429.991 569.813C429.641 568.627 429.603 568.86 428.614 568.27C436.417 567.019 449.142 567.963 457.484 568.013L457.719 545.847Z"/>
	<path fill="#F8F6F7" d="M286.472 413.297C285.899 410.177 285.456 407.178 285.503 403.997C285.716 389.394 291.661 376.757 302.131 366.756C313.877 355.537 326.805 351.694 342.736 351.996C336.63 373.845 338.178 385.494 337.57 406.938C337.169 410.981 337.117 415.147 336.601 419.156L336.084 419.033L335.704 419.657C335.444 419.553 335.188 419.437 334.924 419.344C331.95 418.292 306.856 419.692 302.401 420.396C298.454 421.02 294.174 423.098 290.222 422.966C288.711 419.876 288.513 416.024 286.472 413.297Z"/>
	<path fill="#F8F6F7" d="M682.098 357.224C693 356.251 702.091 356.372 711.992 361.526C725.599 368.611 733.173 380.513 737.66 394.838C735.473 408.776 730.859 419.09 719.169 427.691C711.122 433.613 696.869 439.133 686.76 437.915C686.085 437.834 685.552 437.622 684.968 437.286L684.224 436.091C687.385 409.673 686.399 383.425 682.098 357.224Z"/>
	<defs>
		<linearGradient id="gradient_6" gradientUnits="userSpaceOnUse" x1="603.11707" y1="532.9975" x2="510.58707" y2="378.15866">
			<stop offset="0" stop-color="#C0BAC4"/>
			<stop offset="1" stop-color="#F2ECEE"/>
		</linearGradient>
	</defs>
	<path fill="url(#gradient_6)" d="M604.228 263.196C633.115 277.802 659.681 314.118 669.612 344.16C679.905 375.295 681.152 418.775 673.344 450.542Q671.552 457.573 668.975 464.356Q666.397 471.138 663.067 477.585C649.94 503.257 627.414 524.677 599.67 533.528Q594.078 535.302 588.312 536.387Q582.546 537.471 576.691 537.85C554.749 539.393 531.007 538.095 508.894 538.053L468.959 538.087C461.722 538.107 454.384 538.439 447.163 537.997C441.112 537.627 432.849 536.931 427.361 534.194L427.534 533.631C426.356 533.26 425.323 533.035 424.454 532.096C425.493 528.827 426.646 524.649 428.679 521.88C429.732 522.107 431.162 522.61 432.21 522.298C432.342 522.259 432.459 522.182 432.584 522.124C438.308 522.549 443.938 523.927 449.752 524.222C458.544 524.669 467.446 524.383 476.25 524.391L521.897 524.474L556.934 524.614C568.143 524.658 579.584 525.258 590.583 522.741Q593.204 522.147 595.78 521.383Q598.357 520.619 600.878 519.688Q603.398 518.757 605.853 517.663Q608.307 516.569 610.685 515.316Q613.062 514.063 615.353 512.658Q617.643 511.252 619.837 509.7Q622.03 508.147 624.117 506.455Q626.204 504.762 628.176 502.936C653.666 479.604 663.386 445.347 664.833 411.864C665.766 390.274 664.759 360.627 654.457 341.428C651.905 336.671 648.057 332.357 644.424 328.395C642.39 321.592 629.876 306.449 624.735 300.728C627.015 301.321 628.897 304.499 630.276 306.304C637.847 307.319 643.828 312.481 647.114 319.3C648.6 322.383 649.788 325.943 652.013 328.588C654.999 332.136 659.809 333.9 662.773 337.433C663.971 338.861 665.291 340.481 666.968 341.351C667.658 337.821 662.608 328.412 660.815 325.232C650.877 307.603 641.662 294.548 626.662 280.767C623.461 277.826 620.166 274.788 616.591 272.304C613.175 269.93 607.539 267.033 604.751 264.238C604.477 263.963 604.402 263.543 604.228 263.196Z"/>
	<path fill="#B9BBCD" d="M608.326 580.122C620.617 586.791 632.144 598.728 635.999 612.458C638.483 621.305 637.109 637.18 637.068 646.82L636.996 692.312L637.17 908.853L517.73 908.822L479.678 908.827C473.723 908.834 467.661 909.126 461.721 908.865C468.015 907.326 495.291 908.389 503.471 908.38L616.561 908.298C617.766 885.099 616.949 861.533 616.959 838.284Q617.114 769.441 616.523 700.601Q616.464 679.068 617.05 657.542C617.5 643.996 618.729 627.822 616.916 614.503C615.691 605.504 608.592 591.841 603.139 584.661C604.706 582.941 606.51 581.565 608.326 580.122Z"/>
	<defs>
		<linearGradient id="gradient_7" gradientUnits="userSpaceOnUse" x1="643.19202" y1="955.22369" x2="390.09677" y2="390.61295">
			<stop offset="0" stop-color="#5A6475"/>
			<stop offset="1" stop-color="#9597A4"/>
		</linearGradient>
	</defs>
	<path fill="url(#gradient_7)" d="M284.567 434.322C286.382 436.823 287.981 439.499 289.635 442.11C291.431 444.188 293.176 446.48 295.192 448.341C294.543 449.77 294.12 451.089 293.984 452.661C293.467 458.642 293.7 464.9 293.662 470.912Q293.622 491.863 294.028 512.811L295.131 614.988C295.174 638.119 294.427 661.281 294.319 684.419L294.306 716.288C294.311 721.252 294.889 726.93 294.003 731.785C294.266 751.081 293.839 770.403 293.923 789.705C293.954 796.834 293.485 804.253 294.037 811.334C293.936 822.779 294.204 834.208 294.178 845.65C294.146 859.324 292.484 874.688 295.945 887.974C298.219 896.705 304.036 906.436 310.388 912.826C313.151 915.605 316.148 918.014 319.649 919.793C324.938 922.802 331.684 925.649 337.768 926.337C336.951 925.656 336.304 925.348 335.347 924.911C339.736 925.655 343.924 926.046 348.374 926.166C366.07 926.642 383.74 926.026 401.423 925.772C416.812 925.551 432.235 925.73 447.627 925.734L541.753 926.085C548.426 926.095 568.421 927.382 573.833 925.552L643.793 925.565C656.582 925.578 672.831 926.982 685.096 924.177C694.843 921.947 703.147 917.376 710.252 910.351Q710.973 909.644 711.666 908.909Q712.358 908.174 713.021 907.412Q713.684 906.65 714.315 905.862Q714.947 905.074 715.546 904.261Q716.146 903.448 716.713 902.612Q717.279 901.776 717.812 900.918Q718.345 900.06 718.843 899.182Q719.341 898.303 719.803 897.405Q720.266 896.508 720.692 895.592Q721.118 894.676 721.507 893.745Q721.897 892.813 722.248 891.866Q722.6 890.919 722.914 889.959Q723.228 888.999 723.503 888.028Q723.778 887.056 724.013 886.074Q724.249 885.092 724.446 884.101Q724.642 883.111 724.799 882.113C727.074 867.474 725.87 846.937 726.024 831.743Q726.961 783.754 726.78 735.757L727.078 450.921C730.456 447.521 736.208 439.417 739.038 437.339C739.878 466.833 739.433 496.425 739.438 525.932L739.495 671.646L739.331 809.363C739.164 826.673 739.791 844.128 739.003 861.413C739.076 867.026 740.073 881.941 738.604 886.39C735.735 902.998 725.095 918.707 711.296 928.294C710.743 928.678 710.194 928.98 709.602 929.297C707.628 929.244 706.235 929.672 704.384 930.325C703 930.995 701.562 931.824 700.087 932.24C693.672 933.618 686.594 934.337 680.359 936.181C676.474 937.331 638.272 935.774 631.492 935.746L407.079 934.755C394.042 934.688 380.509 935.254 367.519 934.164L367.679 934.256L366.855 933.639L368.497 933.123C366.521 932.394 346.903 933.213 342.994 933.109C325.27 932.636 311.001 925.617 298.961 912.873Q296.816 911.689 294.635 910.573C290.09 904.568 285.911 895.333 284.903 887.802C283.899 886.201 283.816 882.316 283.56 880.318C282.807 849.954 283.172 819.433 283.479 789.057C285.944 781.891 284.823 714.407 284.849 702.419L284.567 434.322Z"/>
	<path fill="#535C6C" d="M283.56 880.318C284.801 880.781 285.372 880.74 285.976 881.98C287.006 884.096 287.219 887.371 287.648 889.731C290.035 897.808 293.372 905.222 298.403 912.002C298.79 912.524 298.636 912.292 298.961 912.873Q296.816 911.689 294.635 910.573C290.09 904.568 285.911 895.333 284.903 887.802C283.899 886.201 283.816 882.316 283.56 880.318Z"/>
	<path fill="#9793A0" d="M290.07 684.62C288.559 679.743 289.516 672.165 289.503 666.918C289.448 645.517 290.107 624.172 290.352 602.772C290.409 597.769 289.667 592.785 289.853 587.779C290.003 583.744 291.061 579.795 291.172 575.741C291.332 569.863 289.17 561.88 291.293 556.42C292.778 565.989 292.134 576.83 292.163 586.529C292.23 608.982 291.698 631.333 291.22 653.779C291.08 660.315 291.744 679.284 290.07 684.62Z"/>
	<path fill="#535C6C" d="M739.003 861.413C739.076 867.026 740.073 881.941 738.604 886.39C735.735 902.998 725.095 918.707 711.296 928.294C710.743 928.678 710.194 928.98 709.602 929.297C707.628 929.244 706.235 929.672 704.384 930.325C703 930.995 701.562 931.824 700.087 932.24C693.672 933.618 686.594 934.337 680.359 936.181C676.474 937.331 638.272 935.774 631.492 935.746L407.079 934.755L407.686 934.294C404.156 932.968 397.243 934.124 393.253 933.934L393.095 933.466C399.148 932.462 407.293 933.263 413.735 932.864L413.486 932.808C428.83 931.303 445.072 932.043 460.512 932.202C465.225 932.25 470.943 933.208 475.53 932.625C479.204 932.159 483.778 931.662 487.442 932.15C488.044 932.23 487.777 932.125 488.235 932.714L485.647 933.23C487.044 934.501 499.446 932.819 502.374 933.411C508.86 934.72 514.658 932.868 521.014 933.124C524.189 933.251 527.239 934.3 530.408 934.374C537.973 934.55 545.627 933.751 553.199 933.571C559.695 933.417 566.124 934.154 572.604 934.122C580.275 934.085 587.922 933.31 595.617 933.335C603.318 933.36 610.97 934.201 618.662 934.376C632.835 934.698 647.091 934.388 661.272 934.292C666.07 934.259 672.898 935.161 677.45 933.975C679.712 933.386 682.118 933.837 684.431 933.545C687.639 933.141 691.077 931.859 694.331 931.253L694.858 932.122C694.983 932.041 695.107 931.959 695.233 931.879L695.864 931.484C702.683 927.127 709.005 926.148 715.331 920.361C730 906.944 736.285 892.14 737.188 872.672L737.641 872.309C737.946 873.346 737.879 872.939 737.984 873.979C738.009 874.217 738.026 874.455 738.047 874.692C739.177 870.573 737.635 866.122 738.861 861.87C738.906 861.717 738.956 861.565 739.003 861.413Z"/>
	<path fill="#424F64" d="M738.604 886.39C735.735 902.998 725.095 918.707 711.296 928.294C710.743 928.678 710.194 928.98 709.602 929.297C707.628 929.244 706.235 929.672 704.384 930.325C710.933 925.833 717.058 920.939 722.042 914.698C726.127 909.584 729.974 903.599 732.71 897.663C734.15 894.542 735.189 891.116 736.76 888.079C737.198 887.232 737.811 886.865 738.604 886.39Z"/>
	<path fill="#7A808D" d="M289.635 442.11C291.431 444.188 293.176 446.48 295.192 448.341C294.543 449.77 294.12 451.089 293.984 452.661C293.467 458.642 293.7 464.9 293.662 470.912Q293.622 491.863 294.028 512.811L295.131 614.988C295.174 638.119 294.427 661.281 294.319 684.419L294.306 716.288C294.311 721.252 294.889 726.93 294.003 731.785C290.012 743.244 292.115 771.529 291.356 785.425C289.493 783.557 289.86 774.955 289.867 772.3C289.875 769.474 289.226 759.124 290.449 757.168C288.588 749.302 289.619 737.501 289.528 729.104C289.369 714.386 288.702 699.598 289.273 684.887L290.07 684.62C291.744 679.284 291.08 660.315 291.22 653.779C291.698 631.333 292.23 608.982 292.163 586.529C292.134 576.83 292.778 565.989 291.293 556.42C291.103 554.131 291.639 551.883 292.027 549.634C290.365 545.293 291.335 529.922 291.464 524.496L291.383 525.508C290.83 517.841 291.234 510.169 291.162 502.488L291.006 503.505C290.609 501.761 290.726 499.622 290.717 497.832C290.685 491.439 291.78 485.02 291.825 478.593C291.87 471.976 290.879 465.209 291.164 458.635C291.316 455.152 292.318 451.676 292.444 448.208C292.494 446.834 291.401 445.887 290.545 444.937C289.861 444.177 289.844 443.105 289.635 442.11Z"/>
	<defs>
		<linearGradient id="gradient_8" gradientUnits="userSpaceOnUse" x1="623.52069" y1="444.23459" x2="359.06049" y2="331.02271">
			<stop offset="0" stop-color="#D5CFDB"/>
			<stop offset="1" stop-color="white"/>
		</linearGradient>
	</defs>
	<path fill="url(#gradient_8)" d="M500.451 211.581C509.823 208.94 520.724 209.576 529.32 214.427C540.23 220.583 541.368 231.768 544.34 233.806C543.776 236.317 544.369 239.235 544.606 241.785C563.099 244.838 580.339 250.14 596.971 258.826C598.985 259.878 602.805 261.484 604.228 263.196C604.402 263.543 604.477 263.963 604.751 264.238C607.539 267.033 613.175 269.93 616.591 272.304C620.166 274.788 623.461 277.826 626.662 280.767C641.662 294.548 650.877 307.603 660.815 325.232C662.608 328.412 667.658 337.821 666.968 341.351C665.291 340.481 663.971 338.861 662.773 337.433C659.809 333.9 654.999 332.136 652.013 328.588C649.788 325.943 648.6 322.383 647.114 319.3C643.828 312.481 637.847 307.319 630.276 306.304C628.897 304.499 627.015 301.321 624.735 300.728C629.876 306.449 642.39 321.592 644.424 328.395C640.495 325.924 636.431 324.394 631.853 323.678C624.205 322.481 616.015 323.163 608.277 323.222L574.048 323.328C566.707 323.339 559.262 323.588 551.94 323.068C521.029 323.71 490.002 323.058 459.072 323.261C448.175 323.332 435.177 322.539 424.651 323.476C424.45 323.524 424.249 323.575 424.047 323.62C421.144 324.273 418.344 324.286 415.384 324.3C416.757 325.016 416.892 325.41 417.676 326.696L417.66 327.867C417.027 328.415 416.402 328.935 415.735 329.444Q416.607 330.213 417.443 331.022C417.512 332.519 416.589 333.755 415.885 335.02C415.937 336.577 416.015 336.581 417.031 337.78C420.865 339.386 425.244 337.801 429.165 338.951C415.065 339.243 397.041 336.605 386.121 347.761C373.599 360.553 370.912 391.236 371.392 408.47C371.677 418.73 373.161 429.642 381.218 436.903C392.009 446.628 409.943 442.915 423.213 443.973C422.941 444.086 422.671 444.207 422.396 444.312C417.575 446.156 403.188 442.906 399.904 445.791C399.467 448.879 399.83 453.063 398.012 455.644C397.865 455.853 397.725 456.067 397.575 456.273C394.083 461.068 386.68 468.316 381.014 469.77C379.68 469.349 378.42 468.969 377.028 468.774C375.541 469.64 375.41 470.556 374.513 471.924C373.608 471.26 372.839 470.555 372.043 469.764L371.707 470.189C372.967 473.294 375.429 476.702 375.821 479.967C384.788 496.071 400.637 509.388 417.46 516.638C421.559 518.404 429.199 519.989 432.584 522.124C432.459 522.182 432.342 522.259 432.21 522.298C431.162 522.61 429.732 522.107 428.679 521.88C426.646 524.649 425.493 528.827 424.454 532.096C425.323 533.035 426.356 533.26 427.534 533.631L427.361 534.194C418.184 532.141 408.878 527.216 400.951 522.272C374.999 506.091 355.679 477.472 348.917 447.841C345.835 434.334 346.048 420.677 346.071 406.921C346.088 396.809 345.739 386.499 346.517 376.418C348.261 353.816 356.372 331.47 368.479 312.377C388.009 281.578 418.592 259.538 453.057 248.283C461.834 245.417 470.756 243.587 479.75 241.566L479.933 240.827C479.892 238.423 480.272 236.252 480.725 233.908C481.225 232.085 481.875 230.24 482.577 228.485C485.907 220.148 492.457 215.031 500.451 211.581Z"/>
	<path fill="#0C2649" d="M507.469 273.843C510.999 273.975 514.507 274.118 517.982 273.391C518.006 279.883 519.537 305.882 515.68 309.964C514.886 310.804 513.115 310.912 512.017 310.806C510.306 310.64 509.141 309.87 508.175 308.495C507.867 308.058 507.6 307.594 507.323 307.137Q507.189 290.489 507.469 273.843Z"/>
	<path fill="#B9BBCD" d="M551.94 323.068C559.052 322.235 566.667 322.792 573.835 322.782C582.237 322.77 590.633 322.358 599.026 322.359C604.361 322.36 610.138 323.067 615.386 322.256C614.968 322.086 615.117 322.156 614.633 321.906L613.938 321.541C612.815 320.964 611.57 320.432 610.633 319.566C609.363 318.394 607.245 315.663 606.738 313.981C605.563 310.08 606.883 303.915 606.946 299.787C606.979 297.591 606.07 295.861 605.741 293.76C605.312 291.024 605.626 287.807 605.612 285.017L603.693 283.494L603.812 282.988C610.77 286.586 619.17 295.18 624.735 300.728C629.876 306.449 642.39 321.592 644.424 328.395C640.495 325.924 636.431 324.394 631.853 323.678C624.205 322.481 616.015 323.163 608.277 323.222L574.048 323.328C566.707 323.339 559.262 323.588 551.94 323.068Z"/>
	<path fill="#3A72A7" d="M375.821 479.967C373.07 476.326 370.961 471.669 369.113 467.512C361.741 450.929 359.465 435.153 359.129 417.191C358.658 391.987 356.659 349.245 375.651 330.288C378.581 327.363 382.17 325.439 386.173 324.422C395.331 322.096 414.59 323.318 424.651 323.476C424.45 323.524 424.249 323.575 424.047 323.62C421.144 324.273 418.344 324.286 415.384 324.3C416.757 325.016 416.892 325.41 417.676 326.696L417.66 327.867C417.027 328.415 416.402 328.935 415.735 329.444Q416.607 330.213 417.443 331.022C417.512 332.519 416.589 333.755 415.885 335.02C415.937 336.577 416.015 336.581 417.031 337.78C420.865 339.386 425.244 337.801 429.165 338.951C415.065 339.243 397.041 336.605 386.121 347.761C373.599 360.553 370.912 391.236 371.392 408.47C371.677 418.73 373.161 429.642 381.218 436.903C392.009 446.628 409.943 442.915 423.213 443.973C422.941 444.086 422.671 444.207 422.396 444.312C417.575 446.156 403.188 442.906 399.904 445.791C399.467 448.879 399.83 453.063 398.012 455.644C397.865 455.853 397.725 456.067 397.575 456.273C394.083 461.068 386.68 468.316 381.014 469.77C379.68 469.349 378.42 468.969 377.028 468.774C375.541 469.64 375.41 470.556 374.513 471.924C373.608 471.26 372.839 470.555 372.043 469.764L371.707 470.189C372.967 473.294 375.429 476.702 375.821 479.967Z"/>
	<defs>
		<linearGradient id="gradient_9" gradientUnits="userSpaceOnUse" x1="539.43262" y1="255.14188" x2="486.68958" y2="228.66849">
			<stop offset="0" stop-color="#0C77B7"/>
			<stop offset="1" stop-color="#7DC6F4"/>
		</linearGradient>
	</defs>
	<path fill="url(#gradient_9)" d="M500.451 211.581C509.823 208.94 520.724 209.576 529.32 214.427C540.23 220.583 541.368 231.768 544.34 233.806C543.776 236.317 544.369 239.235 544.606 241.785C543.08 252.078 539.201 261.463 530.56 267.785C526.945 270.429 523.001 271.661 518.796 273.023C518.21 273.213 518.438 273.106 517.982 273.391C514.507 274.118 510.999 273.975 507.469 273.843Q507.189 290.489 507.323 307.137C505.987 298.636 507.055 282.525 507.129 273.327C502.404 272.26 497.888 270.591 493.872 267.84C484.534 261.443 481.655 252.212 479.75 241.566L479.933 240.827C479.892 238.423 480.272 236.252 480.725 233.908C481.225 232.085 481.875 230.24 482.577 228.485C485.907 220.148 492.457 215.031 500.451 211.581Z"/>
	<path fill="#5CBBE3" d="M480.725 233.908C481.225 232.085 481.875 230.24 482.577 228.485C485.907 220.148 492.457 215.031 500.451 211.581C503.641 217.07 508.221 221.219 506.268 228.203C504.991 232.768 501.014 237.118 496.841 239.309C495.391 240.071 493.771 240.567 492.218 241.076C487.965 239.918 484.308 239.197 480.059 240.809C480.02 240.824 479.975 240.821 479.933 240.827C479.892 238.423 480.272 236.252 480.725 233.908Z"/>
	<path fill="#5CBBE3" d="M677.77 462.001C691.48 464.415 702.735 462.998 715.555 457.6C714.716 480.23 715.365 502.908 715.415 525.55L715.423 636.308L715.441 673.218C715.448 679.516 715.759 685.993 715.418 692.272C714.415 703.338 715.117 714.915 714.996 726.047C714.864 738.219 714.322 750.411 714.274 762.576C714.216 777.559 714.634 792.612 714.301 807.585C714.246 810.025 712.133 813.276 711.386 815.741C709.334 822.518 708.622 829.213 708.755 836.275C708.566 836.556 708.372 836.833 708.187 837.116C704.476 842.805 706.237 862.259 702.43 871.385C697.864 882.33 687.962 884.981 683.142 894.916C679.33 896.227 675.649 896.229 672.084 898.289C670.406 899.258 668.18 899.416 666.269 899.538C666.098 899.77 665.935 900.008 665.757 900.234C664.119 902.322 660.335 904.21 657.691 904.466C656.478 904.584 655.646 904.387 654.713 903.561C652.181 901.32 651.049 897.785 649.85 894.722L649.374 894.832L648.637 896.217C647.505 894.239 648.479 891.707 648.186 889.497C647.784 886.456 645.895 883.828 645.693 880.684C644.878 868.012 647.274 794.936 644.993 789.828C644.469 752.485 645.313 715.106 644.924 677.754C643.579 670.566 643.835 656.805 644.567 649.356C644.82 646.54 644.624 643.542 644.629 640.705C644.44 636.916 644.604 633.058 644.62 629.262Q644.576 626.569 644.426 623.88C644.086 620.501 644.466 616.971 644.645 613.58C642.78 606.382 639.998 599.768 635.769 593.618C627.868 582.127 615.279 572.707 601.419 570.147C592.28 568.077 570.862 569.503 560.036 569.055C560.05 561.215 559.97 553.363 560.082 545.524C566.948 545.504 574.075 545.798 580.904 545.122Q583.167 544.888 585.418 544.558Q587.669 544.227 589.904 543.8Q592.139 543.374 594.353 542.852Q596.568 542.33 598.758 541.714Q600.948 541.098 603.11 540.389Q605.272 539.68 607.401 538.878Q609.531 538.077 611.624 537.186Q613.717 536.294 615.77 535.314Q617.823 534.334 619.833 533.267Q621.842 532.199 623.804 531.047Q625.766 529.895 627.677 528.66Q629.587 527.425 631.443 526.109Q633.3 524.793 635.098 523.399Q636.896 522.005 638.633 520.536Q640.37 519.066 642.042 517.523Q643.714 515.981 645.319 514.368C659.559 500.081 672.544 481.668 677.77 462.001Z"/>
	<path fill="#0C2649" d="M660.199 678.011L660.753 677.223C669.345 676.51 675.918 673.875 683.567 670.073C683.454 674.544 682.357 705.681 683.868 707.348L684.032 781.817C689.095 785.605 692.534 790.399 693.355 796.792Q693.419 797.319 693.457 797.848Q693.495 798.377 693.507 798.908Q693.519 799.438 693.504 799.969Q693.489 800.499 693.448 801.028Q693.406 801.557 693.339 802.083Q693.271 802.61 693.177 803.132Q693.083 803.654 692.964 804.171Q692.844 804.688 692.699 805.199Q692.553 805.709 692.383 806.211Q692.212 806.714 692.016 807.207Q691.821 807.7 691.601 808.183Q691.381 808.666 691.137 809.138Q690.894 809.609 690.627 810.068Q690.36 810.526 690.07 810.971Q689.781 811.416 689.47 811.846Q689.158 812.275 688.826 812.689Q688.492 813.108 688.139 813.509Q687.785 813.91 687.411 814.294Q687.038 814.677 686.646 815.042Q686.254 815.406 685.844 815.75Q685.435 816.095 685.009 816.419Q684.582 816.742 684.141 817.045Q683.699 817.347 683.243 817.627Q682.787 817.906 682.317 818.163Q681.848 818.42 681.366 818.653Q680.884 818.887 680.392 819.096Q679.899 819.305 679.397 819.489Q678.894 819.673 678.383 819.832Q677.872 819.991 677.354 820.125Q676.836 820.259 676.311 820.366Q675.787 820.474 675.258 820.555Q674.729 820.637 674.197 820.692C670.677 821.05 666.512 820.615 663.351 818.936L663.838 817.523C668.794 819.064 674.285 819.542 679.239 817.76Q680.109 817.441 680.942 817.038Q681.776 816.635 682.566 816.152Q683.356 815.669 684.095 815.11Q684.833 814.551 685.513 813.921Q686.192 813.292 686.806 812.599Q687.421 811.906 687.963 811.156Q688.506 810.405 688.972 809.605Q689.438 808.804 689.823 807.962Q690.04 807.51 690.234 807.047Q690.429 806.585 690.6 806.113Q690.771 805.642 690.918 805.162Q691.066 804.683 691.189 804.196Q691.312 803.71 691.411 803.218Q691.509 802.726 691.583 802.23Q691.658 801.734 691.707 801.235Q691.756 800.736 691.78 800.234Q691.805 799.733 691.804 799.232Q691.803 798.73 691.777 798.229Q691.751 797.728 691.701 797.229Q691.65 796.73 691.574 796.234Q691.499 795.738 691.399 795.247Q691.298 794.755 691.174 794.269Q691.049 793.783 690.9 793.304Q690.751 792.825 690.579 792.354C688.509 786.841 684.65 783.506 679.475 781.078L678.398 780.653L678.953 780.028C679.877 780.344 680.789 780.59 681.733 780.835C682.191 780.305 682.202 692.971 681.885 682.834Q680.877 683.625 679.827 684.359C676.244 686.821 670.51 688.407 666.224 687.098C664.88 686.688 663.696 685.938 662.304 685.693L662.025 688.502C661.463 689.339 661.274 689.812 661.146 690.837C660.181 698.555 660.917 707.147 660.958 714.961L661.203 762.664C661.219 768.063 661.951 774.773 660.913 780.052C659.781 773.452 660.625 764.763 660.601 757.918L660.534 705.873C660.54 696.772 661.255 687.025 660.199 678.011Z"/>
	<path fill="#1A3B67" d="M644.645 613.58C652.905 608.114 661.517 605.652 671.39 607.608Q672.256 607.781 673.113 607.998Q673.97 608.214 674.815 608.473Q675.66 608.732 676.491 609.033Q677.321 609.333 678.136 609.675Q678.951 610.017 679.748 610.399Q680.545 610.781 681.322 611.202Q682.098 611.623 682.853 612.083Q683.608 612.542 684.339 613.039Q685.07 613.536 685.775 614.068Q686.48 614.601 687.158 615.168Q687.835 615.735 688.484 616.335Q689.133 616.935 689.751 617.566Q690.368 618.198 690.954 618.86Q691.54 619.522 692.091 620.212Q692.643 620.902 693.16 621.619Q693.677 622.335 694.157 623.077C699.127 630.61 701.142 639.805 699.218 648.674C697.165 658.141 691.549 664.862 683.986 670.547C683.766 682.696 684.715 695.281 683.868 707.348C682.357 705.681 683.454 674.544 683.567 670.073C675.918 673.875 669.345 676.51 660.753 677.223L660.199 678.011C654.644 678.055 649.064 673.294 645.679 673.488C644.605 674.795 644.951 676.094 644.924 677.754C643.579 670.566 643.835 656.805 644.567 649.356C645.436 655.707 644.907 662.855 645.046 669.309C653.895 671.643 664.241 674.604 673.198 671.077C680.891 668.048 688.065 661.301 691.439 653.746C694.14 647.698 695.105 640.4 692.647 634.127C690.654 627.166 685.079 621.045 678.989 617.424C677.208 616.374 675.475 615.512 673.551 614.754C666.529 612.307 661.293 612.622 654.379 615.191C651.005 616.584 646.431 618.602 644.917 622.23C644.671 622.82 644.576 623.278 644.426 623.88C644.086 620.501 644.466 616.971 644.645 613.58Z"/>
	<defs>
		<linearGradient id="gradient_10" gradientUnits="userSpaceOnUse" x1="660.55194" y1="789.68115" x2="686.21008" y2="811.43182">
			<stop offset="0" stop-color="#27A1ED"/>
			<stop offset="1" stop-color="#134587"/>
		</linearGradient>
	</defs>
	<path fill="url(#gradient_10)" d="M653.484 794.839C654.783 790.005 657.749 785.503 662.021 782.811C666.94 779.712 672.856 779.39 678.398 780.653L679.475 781.078C684.65 783.506 688.509 786.841 690.579 792.354Q690.751 792.825 690.9 793.304Q691.049 793.783 691.174 794.269Q691.298 794.755 691.399 795.247Q691.499 795.738 691.574 796.234Q691.65 796.73 691.701 797.229Q691.752 797.728 691.777 798.229Q691.803 798.73 691.804 799.232Q691.805 799.733 691.78 800.234Q691.756 800.736 691.707 801.235Q691.658 801.734 691.584 802.23Q691.509 802.726 691.411 803.218Q691.312 803.71 691.189 804.196Q691.066 804.683 690.918 805.162Q690.771 805.642 690.6 806.113Q690.429 806.585 690.234 807.047Q690.04 807.51 689.823 807.962Q689.438 808.804 688.972 809.605Q688.506 810.405 687.963 811.156Q687.421 811.906 686.806 812.599Q686.192 813.292 685.513 813.921Q684.833 814.551 684.095 815.109Q683.356 815.669 682.566 816.152Q681.776 816.635 680.942 817.038Q680.109 817.441 679.239 817.76C674.285 819.542 668.794 819.064 663.838 817.523C660.642 816.01 658.077 813.953 656.136 810.96C652.977 806.091 652.29 800.44 653.484 794.839Z"/>
	<defs>
		<linearGradient id="gradient_11" gradientUnits="userSpaceOnUse" x1="678.05511" y1="789.28949" x2="653.53351" y2="791.29443">
			<stop offset="0" stop-color="#2689D5"/>
			<stop offset="1" stop-color="#2CACEE"/>
		</linearGradient>
	</defs>
	<path fill="url(#gradient_11)" d="M653.484 794.839C654.783 790.005 657.749 785.503 662.021 782.811C666.94 779.712 672.856 779.39 678.398 780.653L679.475 781.078C679.281 781.19 679.076 781.286 678.892 781.414C677.925 782.088 677.675 782.789 677.167 783.814C676.778 789.755 685.117 792.565 678.234 798.528C677.086 799.522 676.063 800.124 675.136 801.364C673.741 803.228 670.671 804.002 668.452 804.327C664.999 804.831 661.678 803.645 658.985 801.511C657.26 800.144 654.708 798.316 653.97 796.225C653.878 795.962 653.776 795.704 653.684 795.441C653.614 795.242 653.551 795.04 653.484 794.839Z"/>
	<path fill="#5CBBE3" d="M666.696 786.964C666.844 786.976 666.993 786.977 667.14 787.001C668.547 787.232 670.445 788.21 671.225 789.479C671.951 790.662 671.982 791.842 671.587 793.14C670.748 795.905 668.719 797.284 666.27 798.543C664.586 798.269 662.207 797.882 661.271 796.272C660.58 795.083 660.63 793.912 661.046 792.646C661.913 790.009 664.384 788.224 666.696 786.964Z"/>
	<defs>
		<linearGradient id="gradient_12" gradientUnits="userSpaceOnUse" x1="679.30426" y1="732.81061" x2="662.68536" y2="732.69617">
			<stop offset="0" stop-color="#576071"/>
			<stop offset="1" stop-color="#8D90A2"/>
		</linearGradient>
	</defs>
	<path fill="url(#gradient_12)" d="M662.025 688.502L662.304 685.693C663.696 685.938 664.88 686.688 666.224 687.098C670.51 688.407 676.244 686.821 679.827 684.359Q680.877 683.625 681.885 682.834C682.202 692.971 682.191 780.305 681.733 780.835C680.789 780.59 679.877 780.344 678.953 780.028L678.398 780.653C672.856 779.39 666.94 779.712 662.021 782.811C657.749 785.503 654.783 790.005 653.484 794.839C652.29 800.44 652.977 806.091 656.136 810.96C658.077 813.953 660.642 816.01 663.838 817.523L663.351 818.936C659.429 816.818 656.037 813.983 653.747 810.094C649.406 802.725 651.075 794.04 655.94 787.432C657.848 784.84 660.161 783.208 660.913 780.052C661.951 774.773 661.219 768.063 661.203 762.664L660.958 714.961C660.917 707.147 660.181 698.555 661.146 690.837C661.274 689.812 661.463 689.339 662.025 688.502Z"/>
	<path fill="#0A030A" d="M662.025 688.502C662.696 719.313 661.79 750.199 662.636 780.993C668.233 779.231 673.186 777.831 678.953 780.028L678.398 780.653C672.856 779.39 666.94 779.712 662.021 782.811C657.749 785.503 654.783 790.005 653.484 794.839C652.29 800.44 652.977 806.091 656.136 810.96C658.077 813.953 660.642 816.01 663.838 817.523L663.351 818.936C659.429 816.818 656.037 813.983 653.747 810.094C649.406 802.725 651.075 794.04 655.94 787.432C657.848 784.84 660.161 783.208 660.913 780.052C661.951 774.773 661.219 768.063 661.203 762.664L660.958 714.961C660.917 707.147 660.181 698.555 661.146 690.837C661.274 689.812 661.463 689.339 662.025 688.502Z"/>
	<defs>
		<linearGradient id="gradient_13" gradientUnits="userSpaceOnUse" x1="664.23889" y1="640.34222" x2="675.54517" y2="667.95795">
			<stop offset="0" stop-color="#2299DF"/>
			<stop offset="1" stop-color="#0B417D"/>
		</linearGradient>
	</defs>
	<path fill="url(#gradient_13)" d="M654.379 615.191C661.293 612.622 666.529 612.307 673.551 614.754C675.475 615.512 677.208 616.374 678.989 617.424C685.079 621.045 690.654 627.166 692.647 634.127C695.105 640.4 694.14 647.698 691.439 653.746C688.065 661.301 680.891 668.048 673.198 671.077C664.241 674.604 653.895 671.643 645.046 669.309C644.907 662.855 645.436 655.707 644.567 649.356C644.82 646.54 644.624 643.542 644.629 640.705C644.44 636.916 644.604 633.058 644.62 629.262Q644.576 626.569 644.426 623.88C644.576 623.278 644.671 622.82 644.917 622.23C646.431 618.602 651.005 616.584 654.379 615.191Z"/>
	<defs>
		<linearGradient id="gradient_14" gradientUnits="userSpaceOnUse" x1="668.93573" y1="642.39935" x2="660.83643" y2="627.13019">
			<stop offset="0" stop-color="#2292D4"/>
			<stop offset="1" stop-color="#50C3F7"/>
		</linearGradient>
	</defs>
	<path fill="url(#gradient_14)" d="M654.379 615.191C661.293 612.622 666.529 612.307 673.551 614.754C675.475 615.512 677.208 616.374 678.989 617.424C685.079 621.045 690.654 627.166 692.647 634.127C691.535 632.966 690.876 632.093 690.169 630.651C681.69 636.139 667.238 644.199 657.777 647.311C653.804 648.618 649.708 649.01 645.752 650.223C645.757 646.88 645.551 643.954 644.629 640.705C644.44 636.916 644.604 633.058 644.62 629.262Q644.576 626.569 644.426 623.88C644.576 623.278 644.671 622.82 644.917 622.23C646.431 618.602 651.005 616.584 654.379 615.191Z"/>
	<path fill="#5CBBE3" d="M654.379 615.191C661.293 612.622 666.529 612.307 673.551 614.754C675.475 615.512 677.208 616.374 678.989 617.424C677.054 622.647 664.146 633.073 658.906 635.649C658.725 635.738 658.538 635.814 658.354 635.896C654.186 635.319 649.896 635.532 645.806 634.67C645.804 634.427 645.803 634.185 645.798 633.942C645.756 631.991 645.772 630.863 644.62 629.262Q644.576 626.569 644.426 623.88C644.576 623.278 644.671 622.82 644.917 622.23C646.431 618.602 651.005 616.584 654.379 615.191Z"/>
	<path fill="#D7F9FE" d="M654.379 615.191C661.293 612.622 666.529 612.307 673.551 614.754C671.473 618.064 665.464 619.713 661.872 620.52C660.914 620.736 659.968 620.899 658.995 621.025C657.336 620.125 655.63 619.444 654.682 617.729C654.579 616.884 654.458 616.038 654.379 615.191Z"/>
	<defs>
		<linearGradient id="gradient_15" gradientUnits="userSpaceOnUse" x1="400.25864" y1="905.59619" x2="362.74298" y2="457.1297">
			<stop offset="0" stop-color="#50BEEC"/>
			<stop offset="1" stop-color="#B2DFF4"/>
		</linearGradient>
	</defs>
	<path fill="url(#gradient_15)" d="M309.622 459.949C321.413 465.466 333.143 468.075 346.127 465.868Q347.219 469.004 348.487 472.072Q349.755 475.141 351.193 478.134Q352.632 481.126 354.238 484.032Q355.843 486.939 357.61 489.75Q359.377 492.561 361.301 495.268Q363.224 497.974 365.296 500.568Q367.369 503.162 369.585 505.635Q371.801 508.107 374.153 510.451C396.874 533.541 425.387 545.494 457.719 545.847L457.484 568.013C449.142 567.963 436.417 567.019 428.614 568.27C429.603 568.86 429.641 568.627 429.991 569.813C426.482 571.113 425.351 572.548 423.75 575.896C423.671 576.061 423.604 576.23 423.531 576.397L423.001 576.775C411.32 579.159 400.648 589.495 394.209 599.137C387.329 609.44 386.378 620.518 386.496 632.626C386.786 635.427 387.065 638.125 386.919 640.945C384.614 656.163 385.014 655.443 373.641 666.625L375.827 667.059L379.719 663.793C378.923 689.958 379.676 716.298 379.611 742.482L379.817 908.814C372.715 908.76 365.603 908.966 358.5 908.99C345.262 909.034 332.56 905.884 322.973 896.232C316.842 890.06 312.012 881.17 310.793 872.505C309.788 865.364 310.017 857.933 309.993 850.732L309.909 820.083Q309.557 769.531 309.881 718.979L309.622 459.949Z"/>
	<path fill="#1A3B67" d="M333.303 793.868C334.169 793.761 334.683 793.309 335.409 792.851C334.053 799.985 334.393 805.5 337.574 812.23L338.146 813.464L337.4 815.171C335.821 813.229 334.385 811.112 333.447 808.781C331.572 804.123 331.291 798.534 333.303 793.868Z"/>
	<path fill="#0C2649" d="M341.082 737.234C341.796 742.225 340.614 752.154 342.006 755.921C342.304 753.914 342.493 751.955 342.58 749.929C343.264 760.538 342.918 771.391 342.976 782.027C348.991 780.064 355.275 779.11 361.527 780.671L363.948 780.782C365.498 781.68 367.091 782.542 368.571 783.55C373.072 787.227 376.309 790.886 377.038 796.937C377.729 802.678 375.987 809.395 372.239 813.86C372.043 814.093 371.839 814.32 371.64 814.55C367.33 819.39 362.274 822.259 355.72 822.649C349.07 823.045 343.087 820.569 338.28 816.052C337.978 815.768 337.689 815.469 337.4 815.171L338.146 813.464C338.261 813.601 338.374 813.739 338.491 813.875C342.108 818.073 347.124 820.231 352.614 820.536C360.244 820.96 365.749 817.638 371.132 812.662C373.927 808.093 375.375 802.42 374.845 797.063C374.308 791.641 371.842 788.298 367.839 784.906C362.011 781.586 356.318 781.3 349.848 782.537C345.284 783.212 341.638 784.901 338.576 788.422C337.475 789.865 336.329 791.283 335.409 792.851C334.683 793.309 334.169 793.761 333.303 793.868C334.559 789.208 337.586 786.008 341.032 782.839C341.193 767.639 340.811 752.434 341.082 737.234Z"/>
	<path fill="#0C2649" d="M373.641 666.625L375.827 667.059L371.955 670.135C372.037 673.395 372.984 679.697 370.443 682.12C368.605 683.873 366.302 683.989 363.889 684.144C357.079 684.068 350.215 683.756 343.412 684.036C342.312 685.024 342.554 685.501 342.459 686.937L340.983 687.963L340.947 685.173C337.976 680.449 338.575 674.917 338.475 669.527C343.465 670.465 347.859 672.346 353.063 672.621C360.037 672.991 368.306 671.344 373.641 666.625Z"/>
	<defs>
		<linearGradient id="gradient_16" gradientUnits="userSpaceOnUse" x1="345.92365" y1="787.76587" x2="365.10941" y2="816.25281">
			<stop offset="0" stop-color="#0F78C0"/>
			<stop offset="1" stop-color="#074581"/>
		</linearGradient>
	</defs>
	<path fill="url(#gradient_16)" d="M349.848 782.537C356.318 781.3 362.011 781.586 367.839 784.906C371.842 788.298 374.308 791.641 374.845 797.063C375.375 802.42 373.927 808.093 371.132 812.662C365.749 817.638 360.244 820.96 352.614 820.536C347.124 820.231 342.108 818.073 338.491 813.875C338.374 813.739 338.261 813.601 338.146 813.464L337.574 812.23C334.393 805.5 334.053 799.985 335.409 792.851C336.329 791.283 337.475 789.865 338.576 788.422C341.638 784.901 345.284 783.212 349.848 782.537Z"/>
	<path fill="#3A72A7" d="M338.576 788.422C341.638 784.901 345.284 783.212 349.848 782.537C350.499 783.343 350.688 783.84 351.675 784.212C354.501 785.277 357.255 786.413 359.235 788.788C359.913 790.643 359.215 792.132 358.437 793.834C356.589 797.875 353.836 802.651 349.512 804.36C347.7 805.076 345.81 805.226 344.03 804.335C341.687 803.162 340.088 800.316 339.358 797.893C338.421 794.783 339.259 791.523 338.576 788.422Z"/>
	<defs>
		<linearGradient id="gradient_17" gradientUnits="userSpaceOnUse" x1="361.10324" y1="732.9682" x2="342.36111" y2="732.51898">
			<stop offset="0" stop-color="#4A586E"/>
			<stop offset="1" stop-color="#81899A"/>
		</linearGradient>
	</defs>
	<path fill="url(#gradient_17)" d="M343.412 684.036C350.215 683.756 357.079 684.068 363.889 684.144C363.936 708.489 364.433 732.948 363.867 757.283L363.948 780.782L361.527 780.671C355.275 779.11 348.991 780.064 342.976 782.027C342.918 771.391 343.264 760.538 342.58 749.929C342.493 751.955 342.304 753.914 342.006 755.921C340.614 752.154 341.796 742.225 341.082 737.234C340.167 721.002 340.968 704.25 340.983 687.963L342.459 686.937C342.554 685.501 342.312 685.024 343.412 684.036Z"/>
	<path fill="#0A030A" d="M340.983 687.963L342.459 686.937L342.595 728.748C342.61 735.764 342.921 742.93 342.58 749.929C342.493 751.955 342.304 753.914 342.006 755.921C340.614 752.154 341.796 742.225 341.082 737.234C340.167 721.002 340.968 704.25 340.983 687.963Z"/>
	<path fill="#1A3B67" d="M343.412 684.036C350.215 683.756 357.079 684.068 363.889 684.144C363.936 708.489 364.433 732.948 363.867 757.283L363.948 780.782L361.527 780.671C361.206 757.894 361.827 735.01 362.004 712.226C361.506 703.038 361.971 693.712 361.746 684.499C355.781 684.562 349.278 685.045 343.412 684.036Z"/>
	<path fill="#135D98" d="M379.814 617.992C381.561 606.371 385.601 596.347 393.291 587.336C401.948 577.193 415.139 569.267 428.614 568.27C429.603 568.86 429.641 568.627 429.991 569.813C426.482 571.113 425.351 572.548 423.75 575.896C423.671 576.061 423.604 576.23 423.531 576.397L423.001 576.775C411.32 579.159 400.648 589.495 394.209 599.137C387.329 609.44 386.378 620.518 386.496 632.626C386.786 635.427 387.065 638.125 386.919 640.945C384.614 656.163 385.014 655.443 373.641 666.625C368.306 671.344 360.037 672.991 353.063 672.621C347.859 672.346 343.465 670.465 338.475 669.527C335.747 668.649 332.585 666.263 330.44 664.339C324.127 658.676 320.701 650.919 320.223 642.497C319.79 634.857 321.649 625.74 326.849 619.875C327.604 617.949 330.096 615.588 331.62 614.141C337.535 608.524 346.553 605.995 354.576 606.31C364.335 606.693 373.19 610.898 379.814 617.992Z"/>
	<path fill="#5CBBE3" d="M340.327 618.123C345.939 614.529 352.509 613.484 359.001 614.646C361.726 615.447 364.004 616.4 366.5 617.781C366.025 618.219 365.644 618.789 365.074 619.094C362.566 620.435 343.805 621.754 340.145 621.575C338.98 621.518 338.427 621.464 337.604 620.621C337.506 620.52 337.437 620.395 337.353 620.281C338.259 619.386 339.25 618.783 340.327 618.123Z"/>
	<path fill="#D7F9FE" d="M340.327 618.123C345.939 614.529 352.509 613.484 359.001 614.646C357.533 617.157 356.167 617.579 353.499 618.287C350.604 619.055 344.159 620.263 341.343 618.822C340.88 618.586 340.708 618.424 340.327 618.123Z"/>
	<defs>
		<linearGradient id="gradient_18" gradientUnits="userSpaceOnUse" x1="352.69235" y1="636.62994" x2="351.13919" y2="623.23047">
			<stop offset="0" stop-color="#3197D4"/>
			<stop offset="1" stop-color="#64C6F4"/>
		</linearGradient>
	</defs>
	<path fill="url(#gradient_18)" d="M366.5 617.781C370.274 620.648 372.954 623.64 375.144 627.879C372.312 631.28 369.318 634.402 366.186 637.524C364.05 637.927 362.168 638.327 359.98 638.072L359.726 637.517C361.314 636.02 363.032 634.721 364.759 633.391C361.2 633.391 356.534 636.084 352.929 636.941C345.808 638.634 342.33 637.372 335.489 636.988C334.371 636.925 333.763 637.013 332.893 637.745C333.29 639.8 335.913 641.916 337.307 643.505L336.424 644.367C334.913 644.179 334.023 643.775 333.062 642.546C330.934 639.819 330.475 633.55 331.157 630.261C331.528 628.47 332.31 626.735 333.011 625.051L334.408 623.354C335.301 622.188 336.261 621.261 337.353 620.281C337.437 620.395 337.506 620.52 337.604 620.621C338.427 621.464 338.98 621.518 340.145 621.575C343.805 621.754 362.566 620.435 365.074 619.094C365.644 618.789 366.025 618.219 366.5 617.781Z"/>
	<path fill="#5CBBE3" d="M333.011 625.051L334.408 623.354C336.618 625.138 339.349 624.845 342.109 624.965C341.802 625.143 341.995 625.066 341.502 625.11L340.735 625.77C337.389 626.243 335.987 626.695 333.011 625.051Z"/>
	<defs>
		<linearGradient id="gradient_19" gradientUnits="userSpaceOnUse" x1="416.12488" y1="601.42352" x2="364.19336" y2="581.60278">
			<stop offset="0" stop-color="#061F46"/>
			<stop offset="1" stop-color="#0B3667"/>
		</linearGradient>
	</defs>
	<path fill="url(#gradient_19)" d="M379.814 617.992C381.561 606.371 385.601 596.347 393.291 587.336C401.948 577.193 415.139 569.267 428.614 568.27C429.603 568.86 429.641 568.627 429.991 569.813C426.482 571.113 425.351 572.548 423.75 575.896C423.671 576.061 423.604 576.23 423.531 576.397L423.001 576.775C411.32 579.159 400.648 589.495 394.209 599.137C387.329 609.44 386.378 620.518 386.496 632.626C381.911 625.909 381.429 622.531 374.285 617.48C364.448 610.523 349.502 606.992 338.455 613.216C336.161 614.509 332.629 618.161 330.237 618.586C330.639 617.876 330.569 617.963 330.969 617.374C331.09 617.194 331.218 617.018 331.341 616.84C334.267 612.594 342.296 610.41 347.091 608.52C351.596 606.744 355.737 609.935 360.154 609.312C357.765 608.351 355.005 607.103 352.391 607.211C341.329 607.664 334.829 611.958 327.732 619.967L326.849 619.875C327.604 617.949 330.096 615.588 331.62 614.141C337.535 608.524 346.553 605.995 354.576 606.31C364.335 606.693 373.19 610.898 379.814 617.992Z"/>
	<defs>
		<linearGradient id="gradient_20" gradientUnits="userSpaceOnUse" x1="615.44574" y1="465.63348" x2="483.70572" y2="355.38599">
			<stop offset="0" stop-color="#1876B4"/>
			<stop offset="1" stop-color="#51A8D6"/>
		</linearGradient>
	</defs>
	<path fill="url(#gradient_20)" d="M424.651 323.476C435.177 322.539 448.175 323.332 459.072 323.261C490.002 323.058 521.029 323.71 551.94 323.068C559.262 323.588 566.707 323.339 574.048 323.328L608.277 323.222C616.015 323.163 624.205 322.481 631.853 323.678C636.431 324.394 640.495 325.924 644.424 328.395C648.057 332.357 651.905 336.671 654.457 341.428C664.759 360.627 665.766 390.274 664.833 411.864C663.386 445.347 653.666 479.604 628.176 502.936Q626.204 504.762 624.117 506.455Q622.03 508.147 619.837 509.7Q617.643 511.252 615.353 512.658Q613.062 514.063 610.685 515.316Q608.307 516.569 605.853 517.663Q603.398 518.757 600.878 519.688Q598.357 520.619 595.78 521.383Q593.204 522.147 590.583 522.741C579.584 525.258 568.143 524.658 556.934 524.614L521.897 524.474L476.25 524.391C467.446 524.383 458.544 524.669 449.752 524.222C443.938 523.927 438.308 522.549 432.584 522.124C429.199 519.989 421.559 518.404 417.46 516.638C400.637 509.388 384.788 496.071 375.821 479.967C375.429 476.702 372.967 473.294 371.707 470.189L372.043 469.764C372.839 470.555 373.608 471.26 374.513 471.924C375.41 470.556 375.541 469.64 377.028 468.774C378.42 468.969 379.68 469.349 381.014 469.77C386.68 468.316 394.083 461.068 397.575 456.273C397.725 456.067 397.865 455.853 398.012 455.644C399.83 453.063 399.467 448.879 399.904 445.791C403.188 442.906 417.575 446.156 422.396 444.312C422.671 444.207 422.941 444.086 423.213 443.973C409.943 442.915 392.009 446.628 381.218 436.903C373.161 429.642 371.677 418.73 371.392 408.47C370.912 391.236 373.599 360.553 386.121 347.761C397.041 336.605 415.065 339.243 429.165 338.951C425.244 337.801 420.865 339.386 417.031 337.78C416.015 336.581 415.937 336.577 415.885 335.02C416.589 333.755 417.512 332.519 417.443 331.022Q416.607 330.213 415.735 329.444C416.402 328.935 417.027 328.415 417.66 327.867L417.676 326.696C416.892 325.41 416.757 325.016 415.384 324.3C418.344 324.286 421.144 324.273 424.047 323.62C424.249 323.575 424.45 323.524 424.651 323.476Z"/>
	<path fill="#0A030A" d="M560.305 381.046C560.445 381.142 560.594 381.227 560.724 381.335C562.412 382.743 562.018 387.915 562.443 390.113C563.529 395.725 566.744 400.991 571.551 404.179C576.045 407.161 581.558 407.531 586.705 406.314C593.114 404.799 598.633 401.881 601.983 395.99C605.528 389.756 606.931 379.207 602.21 373.092C599.879 370.072 594.597 368.061 593.559 364.314L594.379 363.66C601.535 366.167 607.583 370.616 611.009 377.585C614.341 384.362 614.556 393.159 611.869 400.172Q611.616 400.828 611.33 401.47Q611.043 402.112 610.725 402.739Q610.407 403.366 610.058 403.977Q609.709 404.587 609.33 405.179Q608.951 405.771 608.542 406.343Q608.134 406.915 607.697 407.466Q607.26 408.017 606.796 408.545Q606.333 409.073 605.843 409.578Q605.353 410.082 604.839 410.561Q604.324 411.04 603.786 411.493Q603.248 411.945 602.688 412.37Q602.128 412.796 601.547 413.192Q600.967 413.588 600.367 413.955Q599.767 414.322 599.15 414.658Q598.532 414.994 597.899 415.299Q597.265 415.604 596.617 415.876C589.98 418.694 582.829 418.914 576.119 416.202C569.453 413.508 564.022 408.466 561.14 401.836C558.313 395.332 558.171 387.779 560.305 381.046Z"/>
	<path fill="#0C2649" d="M560.305 381.046C562.462 374.513 566.447 369.177 572.544 365.794C579.15 362.129 587.189 361.468 594.379 363.66L593.559 364.314C594.597 368.061 599.879 370.072 602.21 373.092C606.931 379.207 605.528 389.756 601.983 395.99C598.633 401.881 593.114 404.799 586.705 406.314C581.558 407.531 576.045 407.161 571.551 404.179C566.744 400.991 563.529 395.725 562.443 390.113C562.018 387.915 562.412 382.743 560.724 381.335C560.594 381.227 560.445 381.142 560.305 381.046Z"/>
	<path fill="#F8F6F7" d="M581.167 375.607C582.49 375.756 583.693 375.934 584.903 376.525C586.717 377.412 588.118 379.143 588.706 381.065C589.376 383.255 588.962 385.678 587.834 387.643C586.326 390.266 584.134 391.073 581.341 391.801C580.01 391.582 578.742 391.345 577.527 390.729C575.543 389.724 574.048 388.081 573.46 385.908C572.894 383.815 573.357 381.63 574.526 379.827C576.115 377.376 578.429 376.301 581.167 375.607Z"/>
	<defs>
		<linearGradient id="gradient_21" gradientUnits="userSpaceOnUse" x1="458.62909" y1="401.86261" x2="385.62592" y2="348.88168">
			<stop offset="0" stop-color="#56A9D6"/>
			<stop offset="1" stop-color="#89CCEC"/>
		</linearGradient>
	</defs>
	<path fill="url(#gradient_21)" d="M429.165 338.951C453.301 339.581 477.493 338.632 501.64 339.091Q499.454 339.437 497.257 339.699C497.48 341.044 497.413 340.943 496.595 342.079C495.5 343.599 492.375 346.137 491.794 347.573C491.745 347.693 491.912 349.185 491.866 349.356C491.591 350.393 487.996 353.967 487.105 355.079C483.58 359.482 480.194 364.1 477.004 368.752C475.674 370.691 471.787 377.968 470.391 379.004C470.331 379.048 468.813 379.657 468.792 379.665C468.969 380.455 469.185 381.237 469.364 382.023C469.57 382.929 469.446 383.401 469.197 384.267C469.961 392.958 469.178 400.655 463.419 407.716C458.348 413.932 450.436 417.831 442.486 418.519Q441.066 418.639 439.644 418.72C440.671 419.302 440.916 419.107 441.983 419.221C442.296 419.255 442.599 419.353 442.908 419.42C441.177 419.595 438.602 419.012 437.467 420.291L437.333 421.12C435.897 429.723 432.998 434.277 429.73 442.065L428.772 441.737L428.336 442.739C436.21 444.244 450.463 443.519 458.911 443.506C469.182 443.49 550.243 442.07 553.833 444.335C510.294 444.8 466.74 443.597 423.213 443.973C409.943 442.915 392.009 446.628 381.218 436.903C373.161 429.642 371.677 418.73 371.392 408.47C370.912 391.236 373.599 360.553 386.121 347.761C397.041 336.605 415.065 339.243 429.165 338.951Z"/>
	<path fill="#0C2649" d="M412.297 382.004C412.37 381.634 412.438 381.261 412.537 380.897C414.423 373.995 419.732 367.707 425.989 364.267C432.729 360.56 440.283 359.706 447.674 361.713C455.449 363.884 461.372 367.574 465.446 374.828C467.125 377.818 468.246 380.984 469.197 384.267C469.961 392.958 469.178 400.655 463.419 407.716C458.348 413.932 450.436 417.831 442.486 418.519Q441.066 418.639 439.644 418.72C438.469 418.666 437.306 418.568 436.146 418.358C428.035 416.89 420.403 411.774 415.879 404.896C411.101 397.629 410.516 390.278 412.297 382.004Z"/>
	<path fill="#F8F6F7" d="M433.629 372.028C435.279 372.032 436.898 372.046 438.462 372.639C440.866 373.551 442.841 375.346 443.829 377.738C444.855 380.222 444.738 383.017 443.683 385.468C442.227 388.852 439.787 390.441 436.45 391.69C435.167 391.627 433.804 391.599 432.568 391.223C429.843 390.395 427.29 388.261 426.101 385.667Q425.901 385.238 425.749 384.789Q425.596 384.341 425.491 383.88Q425.387 383.418 425.332 382.947Q425.277 382.477 425.272 382.004Q425.267 381.53 425.312 381.059Q425.357 380.588 425.452 380.124Q425.547 379.66 425.691 379.209Q425.834 378.757 426.025 378.324C427.517 374.852 430.268 373.353 433.629 372.028Z"/>
	<path fill="#0A030A" d="M447.674 361.713C455.449 363.884 461.372 367.574 465.446 374.828C467.125 377.818 468.246 380.984 469.197 384.267C469.961 392.958 469.178 400.655 463.419 407.716C458.348 413.932 450.436 417.831 442.486 418.519Q441.066 418.639 439.644 418.72C438.469 418.666 437.306 418.568 436.146 418.358C428.035 416.89 420.403 411.774 415.879 404.896C411.101 397.629 410.516 390.278 412.297 382.004C414.075 384.214 413.734 387.972 414.158 390.691C415.019 396.214 419.116 400.849 423.568 403.963C428.693 407.548 434.123 409.114 440.309 407.876Q440.913 407.751 441.511 407.597Q442.108 407.442 442.697 407.259Q443.286 407.076 443.866 406.864Q444.445 406.652 445.014 406.412Q445.582 406.172 446.138 405.905Q446.695 405.638 447.237 405.344Q447.779 405.05 448.307 404.729Q448.834 404.409 449.346 404.064Q449.857 403.718 450.351 403.348Q450.844 402.978 451.319 402.585Q451.795 402.191 452.25 401.775Q452.705 401.358 453.14 400.92Q453.575 400.482 453.987 400.024Q454.4 399.565 454.79 399.087Q455.18 398.608 455.546 398.112Q455.912 397.615 456.253 397.101C461.003 389.956 461.887 379.342 456.572 372.179C453.943 368.636 448.527 366.072 447.674 361.713Z"/>
	<defs>
		<linearGradient id="gradient_22" gradientUnits="userSpaceOnUse" x1="638.43878" y1="490.54294" x2="403.17633" y2="342.83182">
			<stop offset="0" stop-color="#15275A"/>
			<stop offset="1" stop-color="#3773AE"/>
		</linearGradient>
	</defs>
	<path fill="url(#gradient_22)" d="M424.651 323.476C435.177 322.539 448.175 323.332 459.072 323.261C490.002 323.058 521.029 323.71 551.94 323.068C559.262 323.588 566.707 323.339 574.048 323.328L608.277 323.222C616.015 323.163 624.205 322.481 631.853 323.678C636.431 324.394 640.495 325.924 644.424 328.395C648.057 332.357 651.905 336.671 654.457 341.428C664.759 360.627 665.766 390.274 664.833 411.864C663.386 445.347 653.666 479.604 628.176 502.936Q626.204 504.762 624.117 506.455Q622.03 508.147 619.837 509.7Q617.643 511.252 615.353 512.658Q613.062 514.063 610.685 515.316Q608.307 516.569 605.853 517.663Q603.398 518.757 600.878 519.688Q598.357 520.619 595.78 521.383Q593.204 522.147 590.583 522.741C579.584 525.258 568.143 524.658 556.934 524.614L521.897 524.474L476.25 524.391C467.446 524.383 458.544 524.669 449.752 524.222C443.938 523.927 438.308 522.549 432.584 522.124C429.199 519.989 421.559 518.404 417.46 516.638C400.637 509.388 384.788 496.071 375.821 479.967C375.429 476.702 372.967 473.294 371.707 470.189L372.043 469.764C372.839 470.555 373.608 471.26 374.513 471.924C375.41 470.556 375.541 469.64 377.028 468.774C378.42 468.969 379.68 469.349 381.014 469.77C386.68 468.316 394.083 461.068 397.575 456.273C397.725 456.067 397.865 455.853 398.012 455.644C399.83 453.063 399.467 448.879 399.904 445.791C403.188 442.906 417.575 446.156 422.396 444.312C422.671 444.207 422.941 444.086 423.213 443.973C466.74 443.597 510.294 444.8 553.833 444.335Q585.494 444.647 617.156 444.546C626.042 444.543 634.425 443.827 641.007 436.983C650.375 427.242 650.354 410.7 650.241 397.995C650.089 380.839 648.027 359.794 634.985 347.151C630.915 343.207 625.975 340.519 620.389 339.451C611.808 337.81 589.86 339.048 579.781 339.073C553.748 339.139 527.665 338.627 501.64 339.091C477.493 338.632 453.301 339.581 429.165 338.951C425.244 337.801 420.865 339.386 417.031 337.78C416.015 336.581 415.937 336.577 415.885 335.02C416.589 333.755 417.512 332.519 417.443 331.022Q416.607 330.213 415.735 329.444C416.402 328.935 417.027 328.415 417.66 327.867L417.676 326.696C416.892 325.41 416.757 325.016 415.384 324.3C418.344 324.286 421.144 324.273 424.047 323.62C424.249 323.575 424.45 323.524 424.651 323.476Z"/>
	<path fill="#F8F6F7" d="M469.345 476.595Q469.135 476.067 468.976 475.521Q468.818 474.975 468.713 474.417Q468.608 473.858 468.557 473.292Q468.506 472.726 468.511 472.158Q468.515 471.59 468.574 471.024Q468.633 470.459 468.747 469.902Q468.86 469.345 469.027 468.802Q469.194 468.259 469.412 467.734C470.065 466.145 471.542 464.181 473.194 463.553C480.203 460.886 548.325 461.828 560.603 462.385C558.846 467.139 556.904 473.115 553.623 477.058C549.332 483.808 544.745 489.865 538.919 495.367C530.187 502.77 520.933 506.348 509.386 505.416C500.703 504.715 493.01 501.832 485.713 497.161C477.358 492.362 472.966 485.267 469.345 476.595Z"/>
	<path fill="#B6283A" d="M469.345 476.595C480.171 477.155 491.088 476.921 501.928 476.945L553.623 477.058C549.332 483.808 544.745 489.865 538.919 495.367C531.571 487.077 523.122 483.481 512.131 482.877C505.048 482.487 495.877 482.877 490.278 487.763C487.302 490.36 486.105 493.298 485.713 497.161C477.358 492.362 472.966 485.267 469.345 476.595Z"/>
	<path fill="#F4616B" d="M485.713 497.161C486.105 493.298 487.302 490.36 490.278 487.763C495.877 482.877 505.048 482.487 512.131 482.877C523.122 483.481 531.571 487.077 538.919 495.367C530.187 502.77 520.933 506.348 509.386 505.416C500.703 504.715 493.01 501.832 485.713 497.161Z"/>
	<defs>
		<linearGradient id="gradient_23" gradientUnits="userSpaceOnUse" x1="614.03876" y1="412.75677" x2="407.43948" y2="70.024963">
			<stop offset="0" stop-color="#95D3F0"/>
			<stop offset="1" stop-color="#D0EEF8"/>
		</linearGradient>
	</defs>
	<path fill="url(#gradient_23)" d="M310.342 349.41C309.601 337.329 310 325.038 310 312.929L309.919 244.788Q309.458 211.7 309.456 178.609C309.436 167.841 308.342 155.673 310.245 145.101C311.672 137.179 316.317 129.304 321.594 123.338Q322.358 122.488 323.164 121.676Q323.969 120.865 324.814 120.095Q325.659 119.325 326.541 118.598Q327.424 117.871 328.341 117.189Q329.259 116.507 330.209 115.872Q331.16 115.237 332.141 114.65Q333.122 114.063 334.131 113.525Q335.14 112.988 336.175 112.502Q337.209 112.015 338.267 111.581Q339.324 111.147 340.402 110.767Q341.48 110.386 342.576 110.059Q343.672 109.733 344.782 109.462Q345.893 109.19 347.016 108.975Q348.138 108.759 349.27 108.6Q350.402 108.441 351.541 108.338Q352.68 108.236 353.822 108.19C361.785 107.811 369.866 108.081 377.844 108.011C385.83 107.94 394.995 106.999 402.834 108.483C404.622 108.822 406.019 109.447 407.367 110.68C415.276 117.911 411.694 128.769 426.019 136.786C429.892 138.954 434.104 140.013 438.493 140.404C444.567 140.946 450.854 140.748 456.956 140.786L493.316 140.756C524.748 140.724 556.232 141.071 587.655 140.756C594.46 140.688 600.855 138.675 605.726 133.744C616.178 123.165 609.758 108.093 629.128 107.634C637.983 107.424 646.898 107.653 655.758 107.706C674.662 107.819 687.018 107.393 701.505 121.506C712.955 132.66 715.251 144.884 715.339 160.326L715.143 263.077C715.192 293.404 715.792 323.758 715.344 354.083C702.27 349.727 693.679 347.869 679.839 349.71C667.566 309.034 639.935 273.095 602.232 252.821C584.943 243.524 563.986 235.632 544.34 233.806C541.368 231.768 540.23 220.583 529.32 214.427C520.724 209.576 509.823 208.94 500.451 211.581C492.457 215.031 485.907 220.148 482.577 228.485C481.875 230.24 481.225 232.085 480.725 233.908Q478.706 234.155 476.693 234.452Q474.68 234.748 472.676 235.094Q470.671 235.44 468.675 235.835Q466.679 236.229 464.694 236.673Q462.708 237.116 460.734 237.608Q458.76 238.1 456.799 238.64Q454.837 239.18 452.89 239.768Q450.942 240.356 449.009 240.991Q447.077 241.627 445.16 242.309Q443.244 242.992 441.345 243.721Q439.445 244.45 437.565 245.226Q435.684 246.001 433.822 246.822Q431.961 247.644 430.121 248.51Q428.28 249.377 426.461 250.288Q424.642 251.2 422.846 252.155Q421.05 253.111 419.278 254.11Q417.506 255.109 415.759 256.152Q414.012 257.194 412.291 258.279Q410.57 259.364 408.876 260.49Q407.182 261.617 405.516 262.784Q403.85 263.952 402.213 265.16Q400.576 266.368 398.969 267.616Q397.363 268.864 395.787 270.151Q394.211 271.438 392.667 272.763Q391.124 274.087 389.613 275.45Q388.102 276.812 386.625 278.211Q385.147 279.61 383.705 281.045Q382.263 282.479 380.856 283.949Q379.449 285.418 378.078 286.922Q376.708 288.425 375.374 289.962Q374.041 291.498 372.746 293.067Q371.451 294.636 370.194 296.236C358.765 310.645 350.501 326.674 344.494 343.998C331.991 343.191 322.059 345.099 310.342 349.41Z"/>
	<defs>
		<linearGradient id="gradient_24" gradientUnits="userSpaceOnUse" x1="616.81647" y1="742.49945" x2="387.59091" y2="743.08215">
			<stop offset="0" stop-color="#C6CFEC"/>
			<stop offset="1" stop-color="white"/>
		</linearGradient>
	</defs>
	<path fill="url(#gradient_24)" d="M560.036 569.055C570.862 569.503 592.28 568.077 601.419 570.147C599.913 571.201 599.411 571.933 599.08 573.764C598.929 574.595 598.825 575.438 598.716 576.275C602.038 577.386 605.175 578.592 608.326 580.122C606.51 581.565 604.706 582.941 603.139 584.661C608.592 591.841 615.691 605.504 616.916 614.503C618.729 627.822 617.5 643.996 617.05 657.542Q616.464 679.068 616.523 700.601Q617.114 769.441 616.959 838.284C616.949 861.533 617.766 885.099 616.561 908.298L503.471 908.38C495.291 908.389 468.015 907.326 461.721 908.865L387.541 908.841L386.919 640.945C387.065 638.125 386.786 635.427 386.496 632.626C386.378 620.518 387.329 609.44 394.209 599.137C400.648 589.495 411.32 579.159 423.001 576.775L423.531 576.397C423.604 576.23 423.671 576.061 423.75 575.896C425.351 572.548 426.482 571.113 429.991 569.813Q478.365 569.367 526.741 569.606C536.145 569.275 545.735 569.974 555.098 569.061L560.036 569.055Z"/>
	<defs>
		<linearGradient id="gradient_25" gradientUnits="userSpaceOnUse" x1="593.61761" y1="597.31708" x2="534.43304" y2="585.90344">
			<stop offset="0" stop-color="#0F407C"/>
			<stop offset="1" stop-color="#1D76B4"/>
		</linearGradient>
	</defs>
	<path fill="url(#gradient_25)" d="M560.036 569.055C570.862 569.503 592.28 568.077 601.419 570.147C599.913 571.201 599.411 571.933 599.08 573.764C598.929 574.595 598.825 575.438 598.716 576.275C602.038 577.386 605.175 578.592 608.326 580.122C606.51 581.565 604.706 582.941 603.139 584.661C595.682 591.115 581.308 604.728 570.893 604.59C559.027 610.741 543.114 614.368 529.84 615.19L528.872 614.733L529.366 614.607C529.613 614.542 529.86 614.472 530.108 614.409C531.471 614.064 532.148 614 533.11 612.843C533.433 609.312 535.141 605.586 536.064 602.131C538.685 592.318 540.012 579.872 537.349 569.959C533.989 570.143 529.94 570.709 526.741 569.606C536.145 569.275 545.735 569.974 555.098 569.061L560.036 569.055Z"/>
	<path fill="#9793A0" d="M598.716 576.275C602.038 577.386 605.175 578.592 608.326 580.122C606.51 581.565 604.706 582.941 603.139 584.661C595.682 591.115 581.308 604.728 570.893 604.59Q575.458 601.821 579.925 598.897C588.351 593.355 596.559 586.661 598.716 576.275Z"/>
	<defs>
		<linearGradient id="gradient_26" gradientUnits="userSpaceOnUse" x1="537.42297" y1="595.28723" x2="423.3078" y2="579.92786">
			<stop offset="0" stop-color="#237BB8"/>
			<stop offset="1" stop-color="#89C9EC"/>
		</linearGradient>
	</defs>
	<path fill="url(#gradient_26)" d="M429.991 569.813Q478.365 569.367 526.741 569.606C529.94 570.709 533.989 570.143 537.349 569.959C540.012 579.872 538.685 592.318 536.064 602.131C535.141 605.586 533.433 609.312 533.11 612.843C532.148 614 531.471 614.064 530.108 614.409C529.86 614.472 529.613 614.542 529.366 614.607L528.872 614.733L529.84 615.19C523.217 617.399 493.542 615.666 485.183 614.464C462.863 611.254 438.549 602.677 424.742 583.871C422.89 581.347 422.499 579.86 423.001 576.775L423.531 576.397C423.604 576.23 423.671 576.061 423.75 575.896C425.351 572.548 426.482 571.113 429.991 569.813Z"/>
	<defs>
		<linearGradient id="gradient_27" gradientUnits="userSpaceOnUse" x1="580.58667" y1="743.08392" x2="431.11365" y2="663.34967">
			<stop offset="0" stop-color="#3780BB"/>
			<stop offset="1" stop-color="#68B5DF"/>
		</linearGradient>
	</defs>
	<path fill="url(#gradient_27)" d="M468.1 640.689C470.919 640.333 474.018 640.378 476.848 640.622C492.154 641.942 505.387 650.508 515.105 661.969C517.054 658.793 519.244 655.94 521.936 653.357C530.676 644.974 541.868 641.031 553.874 641.363C566.617 641.715 578.534 646.643 587.28 656.013Q588.151 656.935 588.975 657.899Q589.799 658.864 590.574 659.868Q591.349 660.872 592.072 661.914Q592.796 662.956 593.466 664.033Q594.136 665.11 594.752 666.219Q595.368 667.328 595.927 668.466Q596.487 669.604 596.989 670.769Q597.49 671.934 597.933 673.123Q598.376 674.311 598.759 675.521Q599.142 676.73 599.464 677.957Q599.786 679.184 600.046 680.425Q600.306 681.667 600.504 682.92Q600.701 684.173 600.836 685.434Q600.971 686.695 601.042 687.961Q601.114 689.228 601.122 690.496Q601.13 691.765 601.074 693.032C599.652 723.646 573.814 753.314 552 773.166C542.821 781.037 527.543 795.88 515.599 797.632C503.897 799.349 492.429 788.964 483.799 782.378C456.054 761.206 428.912 731.54 424.319 695.643C422.644 682.555 425.334 669.637 433.532 659.141C442.129 648.135 454.436 642.321 468.1 640.689Z"/>
	<path fill="#F8F6F7" d="M498.039 670.514Q513.734 670.219 529.432 670.172L529.298 697.997C537.652 698.004 546.062 697.849 554.403 698.334Q554.515 713.625 554.433 728.917Q548.847 728.948 543.261 729.044C543.02 729.2 542.783 729.362 542.537 729.511C541.255 730.286 539.724 730.33 538.268 730.474C535.964 733.563 536.459 746.167 534.696 751.138C534.679 751.187 534.664 751.237 534.648 751.286C532.885 752.711 531.058 754.095 529.377 755.613L529.17 756.335C526.669 757.809 502.572 757 497.981 757.015Q498.02 742.988 498.406 728.966C489.976 728.947 481.539 729.093 473.109 729.165L472.842 698.591L498.034 698.615L498.039 670.514Z"/>
	<defs>
		<linearGradient id="gradient_28" gradientUnits="userSpaceOnUse" x1="527.93158" y1="739.04071" x2="535.47424" y2="741.45001">
			<stop offset="0" stop-color="#195389"/>
			<stop offset="1" stop-color="#2F6FA5"/>
		</linearGradient>
	</defs>
	<path fill="url(#gradient_28)" d="M529.263 728.972L543.261 729.044C543.02 729.2 542.783 729.362 542.537 729.511C541.255 730.286 539.724 730.33 538.268 730.474C535.964 733.563 536.459 746.167 534.696 751.138C534.679 751.187 534.664 751.237 534.648 751.286C532.885 752.711 531.058 754.095 529.377 755.613L529.263 728.972Z"/>
</svg>
