<?xml version="1.0" standalone="no"?>
<!DOCTYPE svg PUBLIC "-//W3C//DTD SVG 20010904//EN"
 "http://www.w3.org/TR/2001/REC-SVG-20010904/DTD/svg10.dtd">
<svg version="1.0" xmlns="http://www.w3.org/2000/svg"
 width="512.000000pt" height="512.000000pt" viewBox="0 0 512.000000 512.000000"
 preserveAspectRatio="xMidYMid meet">
<metadata>
Created by potrace 1.16, written by Peter Selinger 2001-2019
</metadata>
<g transform="translate(0.000000,512.000000) scale(0.100000,-0.100000)"
fill="#000000" stroke="none">
<path d="M2380 4923 c-115 -17 -257 -63 -325 -105 -27 -17 -78 -56 -112 -87
-101 -92 -183 -154 -207 -155 -25 -1 -126 -110 -126 -135 0 -8 -11 -29 -25
-47 -14 -18 -25 -38 -25 -44 0 -6 -13 -36 -29 -68 -56 -111 -131 -384 -131
-474 0 -17 -6 -44 -14 -61 -8 -18 -16 -59 -19 -92 -3 -44 -9 -62 -23 -70 -34
-19 -84 -73 -84 -91 0 -10 -20 -36 -44 -59 -60 -55 -76 -111 -83 -290 -11
-296 78 -564 212 -637 28 -15 58 -28 67 -28 9 0 26 -12 38 -27 18 -24 20 -35
15 -88 -6 -53 -2 -75 25 -161 18 -54 48 -124 66 -156 44 -73 133 -154 217
-198 37 -19 69 -42 72 -51 3 -9 33 -29 67 -44 49 -22 65 -25 80 -16 10 6 34
11 54 11 32 0 36 -2 31 -22 -3 -13 -9 -48 -12 -79 -4 -31 -10 -60 -13 -66 -12
-17 -73 -33 -127 -33 -60 0 -126 -30 -217 -98 -29 -22 -77 -52 -106 -66 l-53
-27 -66 26 c-46 19 -87 27 -134 28 -60 2 -68 4 -63 20 21 67 -287 -56 -511
-204 -139 -92 -316 -265 -363 -355 -60 -115 -111 -346 -119 -542 -5 -105 -3
-132 7 -132 17 0 89 42 167 96 43 31 60 39 57 26 -69 -320 -69 -322 -55 -322
5 0 15 26 21 57 7 32 24 114 39 183 24 108 29 122 39 103 18 -32 14 -119 -8
-235 -11 -57 -20 -104 -20 -105 0 -2 6 -3 14 -3 7 0 30 20 50 45 21 25 41 45
45 45 4 0 34 -20 67 -45 l59 -44 132 -1 131 0 22 72 c12 40 53 149 91 242 38
93 69 176 70 185 1 29 17 -38 24 -102 7 -60 4 -70 -54 -221 -34 -87 -60 -163
-58 -169 3 -11 3 -13 78 183 54 143 61 189 39 283 -24 104 -9 87 35 -39 19
-55 34 -94 34 -88 1 15 -57 195 -68 213 -13 20 -28 6 -35 -32 -7 -36 -75 -209
-76 -192 -1 28 45 167 73 220 34 65 187 231 245 267 33 20 36 21 81 5 25 -9
80 -24 121 -32 65 -14 81 -21 120 -59 41 -40 51 -45 109 -51 91 -10 105 -27
97 -114 -10 -100 -12 -99 177 -103 l158 -3 77 81 c42 45 91 89 107 97 17 8 82
23 145 32 130 18 434 71 495 85 99 23 102 22 226 -112 138 -151 204 -230 224
-268 8 -16 26 -84 41 -151 14 -67 34 -146 45 -175 l20 -54 188 0 188 0 -18 53
c-29 82 -22 183 16 232 12 16 12 12 -2 -20 -20 -48 -20 -151 -1 -215 l14 -45
222 -3 c122 -1 222 0 222 3 0 3 -27 38 -61 78 -33 39 -104 136 -156 213 -55
82 -105 146 -120 153 -13 6 -42 11 -64 11 -36 0 -41 3 -55 35 -33 80 -11 167
82 326 96 165 257 292 372 293 42 1 58 -7 152 -70 58 -39 152 -100 209 -135
58 -35 133 -90 168 -122 35 -33 63 -53 63 -45 0 30 -119 126 -280 226 -91 57
-187 118 -214 137 -51 37 -91 44 -152 26 l-31 -9 -6 47 c-8 71 -45 158 -91
214 -32 41 -60 61 -130 96 -120 60 -162 63 -240 18 l-59 -35 -27 57 c-36 76
-72 104 -167 130 -86 23 -131 28 -102 11 9 -5 52 -21 96 -35 51 -16 88 -34
105 -52 28 -29 74 -121 65 -130 -3 -2 -37 7 -77 21 -112 41 -154 36 -288 -29
-62 -31 -185 -104 -275 -164 -194 -129 -206 -136 -370 -191 -137 -46 -138 -47
-237 -169 -29 -35 -67 -69 -86 -77 -37 -15 -249 -20 -240 -5 3 4 53 11 110 13
85 5 112 10 141 28 42 26 68 62 63 87 -2 13 -9 9 -26 -20 -30 -51 -72 -67
-176 -67 l-85 0 10 33 c29 89 19 82 138 93 100 9 114 13 163 45 29 20 113 59
185 88 135 54 232 107 358 197 39 28 145 101 237 162 98 66 169 120 173 132 8
25 -10 50 -37 50 -16 0 -13 8 21 48 67 80 108 158 187 358 41 106 84 204 94
216 24 31 38 85 33 128 -4 31 2 42 49 91 96 101 146 239 170 466 14 131 1 277
-33 388 -26 85 -48 117 -98 146 -31 17 -42 31 -52 66 -6 24 -20 54 -29 66 -12
16 -20 51 -25 122 -4 55 -13 111 -20 125 -7 14 -25 68 -40 120 -28 101 -82
230 -96 230 -13 0 -11 -6 12 -51 11 -23 19 -43 17 -45 -2 -2 -16 22 -31 52
-15 31 -23 53 -18 50 26 -16 18 20 -19 80 -22 36 -40 74 -40 84 0 10 -9 28
-19 41 -16 19 -22 22 -32 12 -7 -7 -17 -13 -23 -13 -5 0 -2 6 9 13 17 13 14
19 -44 93 -34 43 -71 90 -83 103 -38 41 -172 125 -202 127 -16 1 -63 18 -105
38 -216 100 -514 139 -771 99z m355 -13 c50 -6 137 -22 195 -36 115 -28 276
-94 273 -111 -2 -7 4 -28 12 -47 21 -51 19 -66 -9 -66 -14 0 -28 5 -31 10 -9
15 -112 65 -163 81 -29 8 -39 15 -30 21 10 6 8 8 -4 8 -10 0 -40 -29 -68 -64
-35 -45 -60 -67 -80 -71 -36 -8 -67 -44 -145 -170 -32 -53 -64 -100 -70 -105
-6 -5 -27 -5 -50 0 -86 20 -247 22 -354 6 -57 -9 -107 -14 -111 -11 -9 6 -23
65 -43 180 -12 68 -13 70 -44 73 -41 4 -105 -29 -136 -70 -83 -112 -93 -166
-53 -270 20 -51 28 -101 41 -258 25 -303 27 -310 66 -340 18 -14 81 -71 140
-127 l107 -103 145 0 c165 0 149 -6 272 110 100 94 155 136 196 149 20 6 45
21 54 31 18 19 69 179 61 187 -2 3 -11 -22 -20 -54 -27 -95 -43 -123 -82 -139
-19 -8 -40 -12 -46 -8 -26 16 20 364 69 519 25 78 27 81 147 201 139 139 179
171 221 176 l30 3 0 -75 0 -75 -106 -110 c-182 -190 -191 -206 -149 -256 l20
-24 52 60 c29 33 103 112 165 176 l113 115 -36 47 -37 47 13 59 c7 33 9 72 6
86 -7 29 -5 28 46 -9 25 -17 27 -24 21 -58 -5 -35 -2 -43 29 -76 46 -49 108
-127 108 -136 0 -4 -13 -21 -29 -37 -53 -52 -164 -222 -199 -301 -18 -43 -53
-155 -77 -248 -25 -102 -50 -179 -61 -191 -30 -33 -91 -64 -214 -109 -63 -23
-140 -55 -170 -71 -63 -34 -181 -127 -188 -149 -3 -8 17 4 44 26 118 96 159
119 334 184 63 24 144 62 180 84 36 23 70 45 76 49 9 5 10 -12 7 -61 -9 -130
5 -116 -193 -182 -96 -32 -222 -79 -279 -104 -115 -51 -146 -56 -185 -25 -37
29 -33 6 5 -25 17 -14 42 -26 57 -26 25 0 25 -1 6 -15 -29 -22 -51 -18 -113
18 -52 30 -62 32 -148 32 -84 0 -94 -2 -118 -25 -15 -14 -30 -24 -33 -24 -4 1
-13 -1 -20 -4 -7 -2 -27 0 -45 7 l-32 11 32 -5 c24 -3 40 2 63 21 16 14 30 32
30 39 0 9 -9 5 -25 -10 -13 -14 -34 -25 -46 -25 -11 0 -73 22 -137 49 -141 59
-218 84 -231 77 -5 -3 -33 0 -63 8 l-53 14 -27 -31 c-25 -29 -28 -31 -43 -16
-15 15 -15 19 4 50 18 29 21 51 21 149 1 104 2 112 14 85 18 -39 52 -70 101
-91 86 -35 198 -95 294 -158 55 -35 110 -70 123 -77 21 -11 22 -11 10 4 -24
29 -256 172 -352 217 -134 63 -156 81 -176 143 -28 90 -30 308 -5 473 32 204
49 252 141 413 37 66 45 49 10 -22 -34 -69 -35 -74 -35 -188 0 -77 4 -121 13
-131 8 -10 10 -28 5 -49 -6 -32 -5 -33 11 -19 15 12 17 23 12 65 -4 27 -9 84
-12 125 l-6 75 52 64 c28 36 72 106 96 156 26 53 61 107 81 126 l37 34 -19
-30 c-36 -57 -67 -115 -61 -115 3 0 30 38 60 84 63 98 96 121 226 160 171 51
339 66 515 46z m638 -213 c37 -27 67 -51 67 -53 0 -6 -130 84 -150 104 -25 24
6 6 83 -51z m-300 3 c34 -16 73 -38 86 -49 l24 -19 -31 -16 c-45 -23 -279
-252 -307 -301 -45 -76 -123 -486 -109 -573 6 -37 4 -40 -58 -92 -34 -30 -95
-85 -134 -122 l-72 -68 -147 0 -147 0 -107 103 c-58 57 -118 112 -133 122 -26
19 -28 27 -43 160 -8 77 -19 194 -24 260 -6 79 -16 136 -29 165 -43 101 -37
149 28 238 33 46 105 87 134 76 9 -3 16 -7 16 -9 0 -19 44 -212 52 -231 10
-22 17 -25 42 -20 135 24 242 29 348 18 62 -6 122 -14 133 -17 11 -3 25 -2 31
2 6 5 49 67 96 139 79 122 89 132 129 146 25 8 43 19 41 26 -1 7 12 34 30 58
38 53 50 53 151 4z m-1216 -90 c-19 -23 -51 -75 -71 -117 -20 -41 -39 -73 -42
-71 -11 11 57 147 96 191 23 26 45 46 47 43 3 -3 -10 -23 -30 -46z m1633 -20
c17 -22 29 -40 27 -40 -3 0 -20 18 -37 40 -17 22 -29 40 -27 40 3 0 20 -18 37
-40z m-86 -2 c17 3 109 -119 131 -175 9 -22 25 -43 35 -46 42 -11 161 -235
196 -369 9 -35 18 -109 21 -166 l5 -103 -29 7 c-40 10 -50 20 -58 62 -13 72
-118 378 -162 477 -52 115 -93 181 -152 245 -42 45 -46 55 -34 86 6 16 7 15
20 -2 8 -10 20 -18 27 -16z m146 -79 c15 -28 5 -23 -15 7 -9 15 -12 23 -6 20
6 -4 16 -16 21 -27z m-276 -65 c15 -14 6 -26 -93 -132 -61 -64 -127 -139 -147
-165 -41 -53 -58 -56 -62 -9 -3 26 5 41 44 84 79 87 228 238 236 238 3 0 14
-7 22 -16z m340 -29 c-4 -8 -10 -12 -15 -9 -14 8 -10 24 6 24 9 0 12 -6 9 -15z
m67 -86 c9 -17 8 -20 -2 -14 -9 6 -11 3 -6 -8 9 -25 2 -21 -19 11 -17 26 -17
27 1 12 17 -14 18 -13 12 3 -9 24 0 21 14 -4z m-2083 -170 c-17 -101 -23 -174
-23 -296 0 -160 -6 -185 -24 -108 -8 34 -9 36 -10 12 -1 -16 9 -51 20 -78 19
-43 21 -63 17 -167 -3 -79 -9 -126 -20 -146 l-15 -29 -6 24 c-3 13 -15 85 -27
159 -12 74 -26 155 -32 180 -26 115 -21 188 28 342 28 89 102 254 110 246 3
-3 -5 -66 -18 -139z m2118 109 c3 -4 -1 -5 -10 -4 -8 1 -18 5 -22 8 -3 4 1 5
10 4 8 -1 18 -5 22 -8z m-176 -55 c28 -72 34 -211 10 -224 -141 -75 -225 -146
-331 -280 -39 -49 -76 -89 -81 -89 -5 0 -7 4 -4 9 3 5 22 72 41 149 39 157 77
269 108 322 63 106 137 170 198 170 37 0 38 -2 59 -57z m277 -245 c-3 -8 -6
-5 -6 6 -1 11 2 17 5 13 3 -3 4 -12 1 -19z m-183 -23 c13 -14 29 -45 35 -70
12 -48 15 -158 4 -168 -3 -4 -19 15 -35 43 -62 109 -135 67 -240 -138 -53
-102 -59 -147 -33 -222 8 -23 15 -46 15 -50 0 -9 -80 -70 -92 -70 -4 0 -18 18
-30 40 -29 51 -87 75 -173 74 -65 -1 -51 9 27 21 33 5 55 2 79 -10 l34 -16
-27 25 -28 25 11 108 11 108 55 73 c62 81 119 134 207 194 92 64 143 73 180
33z m193 -17 c-3 -8 -6 -5 -6 6 -1 11 2 17 5 13 3 -3 4 -12 1 -19z m-2400 -60
c-3 -7 -5 -2 -5 12 0 14 2 19 5 13 2 -7 2 -19 0 -25z m2421 -83 c0 -49 -1 -48
-12 20 -7 39 -10 75 -7 80 8 15 19 -43 19 -100z m-2431 -27 c-2 -13 -4 -3 -4
22 0 25 2 35 4 23 2 -13 2 -33 0 -45z m2387 -74 c51 -40 44 -69 -17 -79 -58
-10 -99 -54 -126 -138 -31 -91 -51 -208 -49 -287 0 -36 3 -51 5 -35 34 286 69
397 138 429 51 24 63 19 28 -13 -95 -87 -155 -356 -156 -706 -1 -142 5 -206
28 -297 6 -23 4 -27 -21 -30 l-27 -3 27 -32 c15 -18 34 -33 41 -33 7 0 18 -7
25 -15 10 -13 9 -15 -12 -15 -56 0 -93 56 -123 182 l-14 60 27 -4 27 -4 0 211
c1 115 -1 198 -3 183 -3 -27 -6 -28 -58 -28 -64 0 -61 -13 -38 174 25 209 84
406 134 451 17 15 21 15 52 -1 l33 -17 -18 21 c-14 15 -17 29 -12 50 6 28 7
29 39 18 18 -6 50 -25 70 -42z m-2351 29 c-4 -10 -13 -29 -20 -43 -7 -14 -13
-32 -13 -41 0 -9 -9 -19 -20 -22 -18 -5 -20 0 -20 53 0 53 2 59 23 63 48 9 57
8 50 -10z m2411 -9 c9 -3 16 -14 16 -23 0 -9 9 -34 20 -56 11 -22 20 -47 20
-56 0 -15 -6 -15 -45 8 -38 21 -43 27 -35 43 14 27 12 51 -7 72 -14 16 -14 18
0 18 8 0 22 -3 31 -6z m-389 -212 c-12 -12 -14 8 -7 74 l7 69 3 -69 c2 -37 0
-71 -3 -74z m-2035 102 c0 -3 -7 -29 -15 -57 -63 -225 -34 -732 56 -959 24
-60 17 -63 -10 -4 -42 95 -84 296 -97 454 -6 81 -9 92 -25 92 -18 0 -19 10
-19 128 0 189 25 322 64 340 24 12 46 15 46 6z m2057 -46 c-3 -7 -5 -2 -5 12
0 14 2 19 5 13 2 -7 2 -19 0 -25z m-2156 -7 c-11 -20 -61 -56 -61 -44 1 13 24
39 45 51 27 15 27 15 16 -7z m2567 -9 l53 -28 -27 -24 c-48 -46 -106 -186
-109 -270 -1 -25 -6 -117 -10 -205 -8 -178 3 -261 49 -361 33 -71 62 -85 108
-53 l33 24 -16 -25 c-34 -52 -101 -65 -137 -27 -52 55 -78 220 -68 424 l7 132
-48 6 c-83 11 -84 12 -78 53 30 179 59 279 96 326 l20 25 36 -25 c38 -25 54
-27 61 -5 2 7 -14 19 -37 28 -22 9 -38 20 -35 24 9 16 48 8 102 -19z m-2582
-74 c-4 -24 -11 -126 -16 -228 -8 -180 -3 -286 20 -395 6 -27 11 -59 12 -70 0
-11 2 -14 5 -7 3 6 11 12 19 12 8 0 14 8 14 17 0 34 17 -3 38 -82 11 -44 24
-88 27 -98 6 -15 2 -17 -29 -15 -34 2 -37 6 -55 53 -59 159 -90 322 -98 520
-6 175 5 286 33 316 28 31 37 23 30 -23z m150 -140 c-1 -95 2 -207 6 -248 5
-50 4 -65 -2 -46 -16 52 -33 269 -26 346 6 69 15 120 21 120 1 0 2 -78 1 -172z
m1944 63 c39 -124 17 -405 -38 -481 -105 -146 -186 -240 -295 -343 -142 -133
-169 -175 -188 -297 -18 -112 -28 -118 -29 -14 0 97 18 176 53 233 36 60 129
157 253 264 169 147 188 172 208 277 9 47 20 135 23 196 5 96 3 121 -16 182
-11 38 -21 76 -21 84 1 22 29 -34 50 -101z m616 62 c12 -18 32 -70 45 -115 33
-115 34 -366 2 -503 -31 -132 -55 -181 -98 -202 -26 -13 -41 -14 -53 -7 -20
12 -48 66 -57 112 -6 30 -5 32 23 32 l29 0 -10 48 c-5 26 -10 115 -11 197 0
136 2 157 24 219 39 110 83 130 131 60 19 -27 20 -28 14 -4 -13 47 -34 70 -65
70 -57 0 -98 -95 -121 -279 -10 -76 -17 -101 -27 -101 -13 0 -14 22 -9 138 6
162 25 234 76 293 29 35 39 40 68 37 41 -5 43 6 2 22 -27 12 -34 10 -62 -10
l-32 -23 25 27 c34 37 77 33 106 -11z m-2790 -50 c-3 -21 -9 -96 -12 -168 -5
-105 -10 -137 -27 -163 -17 -29 -19 -46 -15 -135 6 -120 34 -207 80 -250 16
-16 31 -27 33 -25 2 2 -5 39 -16 83 -21 91 -23 115 -9 115 6 0 10 -9 10 -20 0
-40 43 -177 79 -252 20 -43 35 -78 34 -78 -15 0 -83 44 -105 67 -91 96 -159
389 -145 628 8 122 21 171 55 208 35 37 46 34 38 -10z m1927 -49 c42 -14 87
-53 87 -75 0 -5 -18 -21 -41 -36 l-40 -26 -62 21 c-76 27 -255 30 -356 7 -35
-9 -65 -14 -67 -12 -4 4 225 85 326 116 80 25 95 25 153 5z m-1557 -122 c10
-41 69 -155 100 -191 41 -49 98 -74 179 -77 l70 -3 -68 9 c-68 8 -135 39 -169
76 -18 21 -92 154 -85 154 2 0 22 -26 45 -57 52 -75 77 -97 134 -123 70 -31
124 -35 199 -15 35 10 86 21 113 25 l49 7 -29 -23 c-24 -20 -25 -22 -6 -18 36
10 71 52 75 92 3 34 4 33 5 -9 1 -26 -4 -65 -12 -87 -9 -24 -12 -51 -7 -67 5
-22 11 -7 26 70 18 92 18 100 2 145 -9 26 -17 50 -17 53 0 2 15 11 33 18 45
19 150 16 183 -6 l26 -17 -23 -24 c-12 -13 -20 -26 -17 -29 3 -3 13 6 22 20
18 28 34 31 59 13 15 -12 15 -17 1 -59 -22 -65 -6 -117 53 -180 25 -27 51 -49
57 -49 6 1 -6 15 -27 32 -69 56 -99 162 -61 216 23 33 34 27 34 -17 0 -63 28
-85 158 -126 63 -19 131 -35 153 -35 52 0 152 34 205 70 41 29 166 161 159
168 -2 2 -39 -32 -82 -77 -137 -139 -246 -169 -425 -115 -51 15 -97 31 -103
36 -17 15 37 9 114 -13 162 -45 266 -13 416 130 52 50 99 91 104 91 11 0 21
-25 21 -53 -1 -41 -37 -128 -81 -192 l-43 -64 -104 -37 c-132 -47 -180 -45
-307 15 -48 22 -82 35 -76 27 17 -21 144 -75 204 -88 52 -11 61 -10 159 22
122 41 163 75 218 185 29 59 35 81 35 136 l0 65 51 36 52 36 5 -27 c7 -32 -6
-175 -24 -276 -15 -88 -45 -125 -218 -273 -68 -59 -153 -140 -187 -181 -87
-100 -106 -153 -113 -311 l-6 -125 -101 -98 c-106 -102 -160 -147 -180 -147
-6 0 -32 16 -58 36 -43 32 -55 36 -124 41 -76 4 -78 4 -126 -31 -27 -20 -55
-36 -63 -36 -7 0 -25 19 -39 43 -15 23 -47 69 -72 101 -59 79 -70 107 -87 232
-8 58 -22 116 -31 129 -19 29 -29 34 -15 8 5 -10 16 -67 26 -127 9 -60 19
-116 21 -125 7 -23 -56 104 -91 184 -23 55 -50 92 -128 175 -162 173 -207 255
-227 411 -15 122 -32 398 -25 409 8 14 83 -75 91 -108z m262 53 c73 -26 131
-50 128 -52 -3 -3 -20 0 -38 5 -85 27 -227 25 -302 -4 -8 -3 -23 8 -35 24
l-21 30 22 27 c19 24 26 27 67 23 25 -3 106 -26 179 -53z m1132 -91 c0 -14 -5
-35 -11 -46 -8 -15 -8 -19 0 -14 6 4 11 2 11 -4 0 -6 6 -8 13 -5 6 4 3 -1 -8
-10 -94 -80 -265 -46 -265 52 0 33 17 28 25 -7 9 -41 58 -80 102 -80 48 0 98
50 108 108 7 44 25 49 25 6z m-1236 -25 c4 -19 13 -44 21 -55 13 -17 13 -14 0
18 -8 21 -15 48 -14 60 0 13 6 1 13 -25 25 -93 96 -129 197 -102 93 25 105 26
59 3 -62 -30 -163 -35 -209 -11 -48 25 -73 63 -77 119 -4 53 1 50 10 -7z m77
6 c16 -95 131 -117 175 -33 14 28 17 29 31 15 14 -14 13 -18 -13 -41 -85 -73
-205 -46 -234 54 -11 38 -5 52 18 48 11 -2 19 -17 23 -43z m1105 -24 c-40 -76
-145 -66 -161 14 -6 29 -6 29 16 -8 13 -21 34 -40 48 -44 34 -8 74 16 85 52
17 58 19 61 23 38 2 -12 -3 -35 -11 -52z m-991 28 c10 -15 -1 -23 -20 -15 -9
3 -13 10 -10 16 8 13 22 13 30 -1z m930 2 c3 -5 1 -13 -5 -16 -15 -9 -43 3
-35 15 8 13 32 13 40 1z m-195 -36 c-7 -8 -17 -15 -23 -15 -6 0 -2 7 9 15 25
19 30 19 14 0z m371 -14 c-12 -16 -36 -39 -55 -50 -50 -31 -56 -25 -7 7 23 15
48 38 57 50 8 12 17 22 20 22 3 0 -4 -13 -15 -29z m-1156 -19 c-3 -3 -11 0
-18 7 -9 10 -8 11 6 5 10 -3 15 -9 12 -12z m1837 -6 c4 -6 8 -83 8 -171 1
-268 49 -408 140 -408 16 0 27 -4 24 -9 -8 -12 -68 -10 -87 5 -9 6 -27 32 -41
57 -14 25 -26 38 -26 29 0 -8 14 -36 30 -63 l30 -47 -36 -15 c-49 -21 -66 -15
-87 27 -23 48 -54 195 -60 287 l-4 74 43 -4 44 -3 0 58 c0 54 -2 58 -32 77
-18 11 -37 21 -42 23 -5 1 -5 27 -1 56 l7 52 42 -7 c22 -3 44 -12 48 -18z
m-982 -31 c23 -8 77 -15 119 -16 62 0 71 -2 51 -11 -36 -14 -138 -4 -190 20
-53 24 -41 28 20 7z m570 -274 c-5 -11 -15 -23 -21 -27 -6 -3 -3 5 6 20 20 30
30 35 15 7z m66 -158 c-19 -144 -44 -247 -87 -349 -27 -65 -46 -92 -108 -154
-62 -62 -215 -180 -234 -180 -2 0 -7 19 -10 42 -6 47 -27 68 -67 68 -33 0 -66
-23 -85 -60 -20 -39 -19 -66 5 -105 l20 -32 -23 -20 c-53 -48 -151 -116 -194
-136 -43 -20 -64 -22 -209 -21 -151 0 -162 1 -199 24 -38 23 -185 211 -185
236 0 32 24 20 86 -43 l67 -68 -62 77 c-34 42 -70 80 -81 83 -11 4 -20 15 -20
26 0 27 -23 69 -50 94 -12 11 -26 29 -32 40 -23 45 99 -87 165 -178 38 -55 76
-101 84 -104 8 -3 38 11 67 31 48 33 58 36 122 36 64 0 73 -3 128 -40 32 -22
62 -40 65 -40 4 0 38 25 76 55 38 30 72 52 76 48 4 -5 11 -20 14 -34 6 -24 -1
-32 -72 -86 -108 -83 -133 -95 -174 -83 -19 6 -72 10 -119 10 -77 0 -88 -3
-115 -26 -24 -20 -25 -23 -7 -14 15 7 72 11 150 10 70 -1 132 -2 138 -1 19 2
113 69 232 166 1 1 -5 18 -13 38 -8 20 -12 42 -9 50 2 7 35 39 72 70 37 30 80
69 96 86 20 21 32 27 37 20 10 -16 72 23 103 64 14 18 40 75 60 127 l36 95
-21 18 c-33 26 -43 16 -51 -48 -9 -71 -45 -166 -76 -203 -16 -18 -20 -20 -13
-7 5 11 21 72 35 134 14 62 31 120 38 129 7 8 38 33 68 55 117 85 193 153 238
211 44 58 47 60 50 34 2 -15 -4 -80 -12 -145z m-1933 -96 c25 -31 49 -78 44
-84 -3 -2 -19 3 -36 12 -27 13 -46 37 -84 102 -13 22 57 -5 76 -30z m232 -37
c19 -38 38 -70 41 -70 3 0 2 6 -2 13 -5 9 -3 9 7 -1 8 -7 15 -17 15 -22 1 -6
2 -13 3 -17 0 -3 11 2 24 13 l22 19 -18 -22 c-16 -18 -17 -27 -7 -65 18 -67
59 -134 111 -183 89 -83 116 -134 88 -162 -17 -17 5 -72 48 -124 l37 -44 -53
50 c-81 77 -200 240 -247 340 -59 124 -129 345 -110 345 3 0 22 -31 41 -70z
m1751 -17 c-5 -36 -56 -156 -63 -149 -3 2 3 18 12 36 9 17 14 41 11 53 -3 12
-3 15 1 7 4 -9 11 2 19 30 16 53 18 86 3 55 -8 -17 -9 -17 -4 5 2 14 5 32 6
40 0 8 5 2 10 -15 5 -16 8 -45 5 -62z m214 27 c0 -5 -8 -10 -17 -10 -15 0 -16
2 -3 10 19 12 20 12 20 0z m-195 -126 c-27 -52 -55 -100 -62 -106 -23 -19 -13
6 27 67 22 33 48 79 57 103 9 23 18 40 21 37 3 -3 -16 -48 -43 -101z m124 59
c33 -28 54 -37 92 -41 43 -4 54 -1 77 21 15 13 42 32 61 42 l34 17 -8 -49 c-4
-26 -15 -66 -25 -88 -10 -22 -48 -116 -84 -210 -117 -302 -178 -403 -256 -426
-52 -16 -71 1 -99 83 l-20 60 25 44 c28 47 26 68 -7 116 -12 16 -19 43 -19 72
0 39 5 51 35 80 23 24 35 45 35 63 0 16 15 58 34 93 18 36 41 86 51 113 10 26
21 47 25 47 3 0 26 -16 49 -37z m146 -13 c-3 -5 -11 -10 -16 -10 -6 0 -7 5 -4
10 3 6 11 10 16 10 6 0 7 -4 4 -10z m-2195 -21 c0 -14 59 -20 93 -11 l35 10
27 -72 c69 -178 214 -396 329 -492 25 -21 46 -42 46 -46 0 -20 -66 -5 -116 27
-30 19 -66 35 -80 35 -45 0 -159 68 -219 130 -81 86 -126 186 -130 289 -2 43
-8 88 -14 99 -16 29 -14 38 9 38 11 0 20 -3 20 -7z m310 -84 c14 -39 34 -85
44 -103 26 -49 12 -50 -23 -2 -30 42 -71 137 -71 166 0 34 24 4 50 -61z m1500
-98 c0 -23 -8 -41 -25 -57 -29 -28 -29 -28 -10 38 18 59 35 68 35 19z m60 -6
c0 -10 -7 -24 -15 -31 -13 -11 -15 -8 -15 19 0 21 5 31 15 31 8 0 15 -8 15
-19z m-95 -99 c-21 -20 -32 -28 -25 -17 26 37 53 65 59 60 3 -3 -12 -22 -34
-43z m-6 -288 c-13 -13 -26 -24 -30 -24 -4 0 -9 21 -12 48 -3 38 1 54 19 83
13 19 24 44 24 56 0 11 3 36 8 54 5 24 8 0 10 -80 2 -106 1 -116 -19 -137z
m-97 195 c-4 -50 -33 -127 -55 -147 -19 -17 -19 -15 -12 63 5 60 12 86 28 103
28 30 43 23 39 -19z m-300 -29 c-3 -29 -31 -55 -45 -41 -5 5 -4 19 3 32 l11
24 -20 -24 c-12 -13 -21 -17 -21 -10 0 21 33 50 54 47 16 -2 20 -9 18 -28z
m338 -20 c-17 -32 -22 -19 -7 19 7 20 13 27 15 18 2 -9 -2 -26 -8 -37z m-120
-30 c0 -51 -4 -65 -25 -85 -23 -24 -45 -33 -45 -18 0 35 25 137 37 148 26 26
33 16 33 -45z m147 26 c-3 -7 -19 -23 -36 -35 -23 -17 -29 -18 -25 -7 3 9 13
16 21 16 8 0 20 14 26 30 7 17 13 26 15 20 2 -6 2 -17 -1 -24z m113 -27 c0 -9
-9 -27 -21 -40 l-20 -24 5 40 c3 22 6 49 6 60 1 20 1 20 15 1 8 -11 15 -27 15
-37z m-507 -15 c46 17 47 6 3 -27 -32 -25 -34 -25 -50 -8 -9 10 -16 26 -16 36
0 17 1 17 13 3 10 -15 17 -15 50 -4z m174 -16 c-3 -8 -6 -5 -6 6 -1 11 2 17 5
13 3 -3 4 -12 1 -19z m-103 -110 c-28 -87 -53 -143 -60 -136 -5 6 35 144 58
197 31 71 33 31 2 -61z m93 70 c-3 -8 -6 -5 -6 6 -1 11 2 17 5 13 3 -3 4 -12
1 -19z m153 -91 c-8 -44 -20 -78 -37 -97 -17 -21 -31 -61 -49 -145 -13 -63
-24 -130 -24 -149 0 -27 -6 -38 -32 -54 -36 -23 -48 -21 -48 11 0 21 106 467
113 473 1 2 21 16 42 32 49 35 53 27 35 -71z m-169 50 c-10 -9 -11 -8 -5 6 3
10 9 15 12 12 3 -3 0 -11 -7 -18z m-1138 -14 c-7 -2 -21 -2 -30 0 -10 3 -4 5
12 5 17 0 24 -2 18 -5z m1427 -12 c-11 -21 -48 -51 -64 -51 -8 0 63 68 72 70
1 0 -2 -9 -8 -19z m-225 -13 c-2 -13 -28 -115 -55 -227 -53 -212 -57 -254 -28
-259 18 -3 255 149 337 217 76 62 86 67 135 63 l45 -4 -27 -22 c-15 -13 -120
-86 -233 -164 -210 -144 -372 -233 -391 -214 -17 17 -3 90 51 272 29 96 62
208 74 249 16 60 25 76 51 92 40 25 47 24 41 -3z m274 -43 c0 -5 -4 -3 -9 5
-5 8 -9 22 -9 30 0 16 17 -16 18 -35z m-1273 -109 c-10 -180 -32 -366 -44
-378 -25 -25 -24 35 2 256 16 127 30 234 33 239 13 22 15 -5 9 -117z m1237 45
c-6 -9 -16 -16 -24 -16 -21 0 -23 43 -3 73 l18 27 10 -34 c6 -22 6 -39 -1 -50z
m267 76 c0 -2 -17 -19 -37 -38 l-38 -34 34 38 c33 34 41 42 41 34z m-196 -96
c-8 -8 -23 14 -29 44 l-6 30 20 -35 c10 -19 17 -37 15 -39z m-1254 21 c0 -15
-2 -15 -10 -2 -13 20 -13 33 0 25 6 -3 10 -14 10 -23z m2 -35 c3 4 3 2 1 -6
-6 -23 48 -174 70 -199 18 -19 22 -42 29 -160 16 -257 19 -270 66 -288 1 -1
-15 -40 -37 -88 -31 -67 -45 -86 -61 -86 -16 0 -20 6 -20 33 1 41 19 120 29
127 5 3 -2 104 -16 225 -19 170 -32 246 -59 337 -38 129 -40 141 -20 115 8
-10 16 -14 18 -10z m1188 -7 c-11 -16 -35 -39 -53 -51 -25 -17 -21 -11 18 29
56 59 66 65 35 22z m-165 -22 c-4 -24 -16 -72 -27 -108 -11 -36 -20 -73 -22
-82 -3 -20 -16 -37 -16 -21 0 19 31 177 42 216 15 51 32 47 23 -5z m-820 -46
c-7 -7 -55 39 -55 52 0 5 13 -3 30 -19 16 -16 28 -31 25 -33z m575 36 c0 -13
-23 -43 -61 -79 -70 -68 -77 -100 -22 -109 l32 -5 -27 -53 c-20 -40 -42 -64
-82 -90 -49 -33 -60 -48 -101 -129 -43 -89 -69 -122 -97 -123 -10 0 -9 5 2 23
8 12 49 112 91 222 119 309 106 286 183 328 80 43 82 43 82 15z m265 -50 c-8
-81 -13 -98 -29 -98 -10 0 -8 19 8 80 11 44 22 80 24 80 2 0 1 -28 -3 -62z
m140 12 c-15 -22 -32 -40 -37 -40 -5 0 5 21 22 46 18 25 34 43 37 40 3 -3 -7
-24 -22 -46z m-911 -70 c23 -8 63 -10 99 -7 64 6 61 -7 -5 -18 -52 -9 -141 19
-181 56 l-32 30 40 -24 c22 -14 58 -30 79 -37z m-380 26 c-7 -17 -58 -31 -76
-20 -8 5 -3 12 17 20 41 18 66 17 59 0z m-98 -30 c8 -14 27 -26 42 -28 22 -2
16 -7 -35 -26 -82 -30 -171 -99 -241 -185 -58 -72 -84 -76 -37 -5 56 85 219
216 252 204 11 -4 11 -1 3 14 -15 27 -32 25 -101 -12 -66 -35 -177 -145 -208
-207 -19 -37 -64 -81 -82 -81 -35 0 45 123 140 218 76 75 172 132 222 132 19
0 34 -8 45 -24z m2251 -46 c86 -42 130 -85 172 -165 24 -47 46 -147 38 -169
-12 -31 -25 -15 -32 37 -14 111 -39 147 -103 147 -18 0 -52 -10 -75 -21 -70
-36 -239 -158 -297 -214 -71 -70 -89 -75 -172 -57 -73 16 -86 29 -38 39 17 3
29 8 28 12 -22 43 -55 82 -74 87 -13 3 -24 11 -24 16 0 20 188 196 263 247
156 105 179 108 314 41z m-1693 -14 c46 0 71 -3 60 -7 -37 -15 -138 -9 -180
10 -23 10 -44 24 -48 30 -4 5 15 0 41 -11 37 -17 67 -22 127 -22z m1274 3 c34
-11 62 -24 62 -28 0 -4 -14 -17 -30 -30 -30 -22 -33 -22 -78 -7 -26 9 -78 22
-117 29 l-70 14 45 21 c57 27 110 28 188 1z m-618 -15 c0 -8 -5 -12 -10 -9 -6
4 -8 11 -5 16 9 14 15 11 15 -7z m-1958 -35 c-44 -32 -82 -88 -101 -150 -22
-70 -209 -305 -294 -370 -103 -79 -158 -151 -261 -344 -63 -117 -134 -221
-181 -265 -31 -29 -26 -19 26 52 64 87 203 327 195 335 -2 3 -37 -50 -76 -117
-70 -117 -177 -271 -199 -284 -26 -16 -8 200 30 364 20 86 50 134 176 284 18
21 41 66 53 100 17 52 29 68 80 111 135 112 348 234 505 290 91 32 97 31 47
-6z m788 -2 c-8 -8 -55 -44 -105 -81 -71 -53 -80 -58 -43 -23 26 24 71 60 100
80 56 38 72 46 48 24z m533 -14 c90 4 91 -12 1 -20 -63 -6 -127 7 -159 31 -17
13 -13 13 30 0 33 -10 76 -14 128 -11z m-1108 -3 c12 -4 -13 -9 -66 -12 -66
-3 -99 -10 -138 -30 -28 -14 -51 -22 -51 -19 1 10 40 57 40 47 0 -5 7 -3 15 4
33 28 138 33 200 10z m2115 12 c0 -4 -25 -20 -55 -35 -70 -34 -71 -28 -2 12
59 35 57 34 57 23z m-1938 -65 c-27 -35 -57 -85 -68 -110 -18 -45 -20 -47 -62
-47 -40 0 -143 -25 -206 -49 -27 -11 -28 -10 -15 6 94 121 197 208 261 219
l33 6 -50 -46 c-50 -46 -49 -46 49 19 54 36 100 65 103 65 2 0 -18 -29 -45
-63z m362 -14 c-65 -62 -84 -107 -84 -196 0 -24 -9 -70 -20 -102 -28 -81 -27
-140 3 -159 94 -62 895 -68 1013 -8 22 11 71 56 109 99 121 138 217 212 371
285 85 39 123 46 171 27 27 -10 28 -11 8 -26 -11 -8 -49 -29 -85 -45 -235
-107 -275 -137 -395 -290 -82 -103 -115 -137 -155 -158 -21 -10 -100 -26 -198
-39 -90 -12 -178 -29 -195 -37 -18 -9 -71 -54 -118 -100 l-86 -84 -119 1 c-66
1 -132 4 -149 8 l-30 6 3 91 c4 107 1 111 -88 124 -34 5 -71 16 -83 25 -12 8
-37 27 -56 40 -19 14 -46 25 -60 26 -14 0 -35 4 -46 8 -16 7 -10 10 27 16 51
8 61 16 73 55 4 14 24 66 45 115 21 50 41 117 45 150 4 33 13 76 21 95 15 34
109 130 128 130 5 0 -17 -26 -50 -57z m533 23 c44 -1 76 -4 70 -8 -18 -12
-130 -9 -168 3 -19 7 -41 18 -49 26 -11 10 -4 9 25 -3 26 -12 68 -18 122 -18z
m1158 3 c5 -5 -8 -9 -37 -9 -25 0 -65 -7 -88 -15 -53 -19 -55 -19 -40 0 29 35
137 51 165 24z m26 -85 c-50 -53 -89 -99 -86 -102 3 -3 17 -7 32 -8 27 -3 73
-44 73 -65 0 -15 -27 -10 -62 11 -18 11 -56 25 -85 31 -53 12 -65 22 -39 32
22 9 155 109 206 155 25 23 47 41 48 42 2 0 -37 -43 -87 -96z m-1686 36 c-10
-11 -21 -17 -25 -15 -9 6 -20 -30 -20 -68 0 -37 21 -67 75 -106 l45 -32 0
-110 c0 -101 -1 -109 -19 -109 -16 0 -21 10 -27 58 -6 53 -11 61 -65 114 -56
55 -59 60 -59 106 0 52 45 157 67 157 7 0 18 6 25 13 20 20 23 14 3 -8z m506
-18 c85 3 93 -3 25 -22 -49 -13 -127 -1 -163 25 -16 12 -13 13 21 4 22 -6 74
-9 117 -7z m1129 -16 c0 -4 -98 -69 -130 -86 -38 -19 -12 4 55 49 55 37 75 47
75 37z m-1612 -83 c7 -12 25 -31 42 -43 16 -12 30 -26 30 -31 0 -16 -56 18
-84 51 -27 32 -31 54 -19 87 6 15 8 13 13 -12 4 -16 12 -40 18 -52z m786 30
c-9 -53 -28 -80 -61 -86 -15 -3 -29 -4 -31 -2 -10 10 23 87 45 104 41 33 55
28 47 -16z m-757 5 c-3 -8 -6 -5 -6 6 -1 11 2 17 5 13 3 -3 4 -12 1 -19z m122
-63 c-4 -44 -5 -90 -2 -102 3 -13 1 -23 -5 -23 -18 0 -24 56 -12 122 21 119
31 121 19 3z m240 44 c25 -5 69 -7 99 -3 68 8 64 -11 -3 -22 -61 -9 -129 3
-157 27 -20 18 -20 20 -4 14 11 -3 40 -10 65 -16z m-779 7 c0 -3 -4 -16 -10
-30 -7 -18 -19 -27 -47 -32 -21 -4 -46 -11 -55 -16 -10 -5 -18 -6 -18 -2 0 12
32 44 44 44 6 0 22 9 36 20 23 18 50 26 50 16z m-375 -24 c-11 -11 -45 -28
-75 -40 l-55 -22 35 31 c46 39 135 68 95 31z m580 8 c3 -5 -2 -10 -12 -10 -10
0 -33 -9 -51 -20 -19 -12 -30 -16 -27 -10 8 13 66 50 77 50 4 0 10 -4 13 -10z
m-341 -44 c-6 -15 -34 -23 -34 -10 0 8 34 34 38 30 1 -2 0 -11 -4 -20z m2670
15 c3 -5 -13 -11 -35 -14 -50 -7 -133 -56 -209 -124 -69 -63 -91 -70 -35 -12
100 103 256 187 279 150z m-2944 -26 c0 -3 -21 -15 -47 -26 -79 -34 -95 -40
-88 -30 3 5 27 17 53 27 26 9 51 21 57 26 10 9 25 11 25 3z m150 0 c0 -3 -21
-35 -47 -72 -88 -129 -127 -244 -122 -366 1 -35 -2 -71 -8 -81 -18 -32 -146
-49 -157 -20 -12 31 -6 151 10 205 24 78 76 177 130 245 43 54 53 61 108 76
68 18 86 20 86 13z m439 -22 c-13 -10 -34 -27 -46 -40 -14 -13 -23 -17 -23 -9
0 14 34 47 65 64 29 16 33 4 4 -15z m723 15 c-16 -16 -117 -20 -150 -7 -32 13
-28 14 62 14 52 0 92 -3 88 -7z m-942 -7 c0 -4 -18 -47 -40 -94 -22 -47 -40
-98 -40 -113 -1 -23 -10 -35 -43 -56 -23 -15 -56 -39 -74 -54 l-32 -26 30 86
c29 83 84 190 118 230 24 28 81 47 81 27z m1980 -16 c40 -14 75 -27 78 -30 3
-2 -17 -26 -43 -52 -54 -56 -145 -188 -176 -258 -15 -34 -20 -60 -16 -91 2
-24 3 -44 2 -44 -1 0 -31 35 -65 79 -34 43 -72 84 -85 91 l-23 12 41 67 c83
137 174 251 202 251 6 0 45 -11 85 -25z m634 -19 c17 -13 38 -37 48 -52 l16
-29 -43 -1 c-56 -1 -121 -40 -204 -120 -35 -35 -68 -61 -72 -58 -4 2 -21 -13
-38 -33 -84 -101 -104 -306 -46 -448 7 -17 6 -18 -6 -8 -8 6 -34 19 -59 29
-59 23 -77 39 -108 99 -23 43 -27 62 -26 135 0 100 23 167 88 263 33 48 49 63
71 65 19 3 53 26 98 67 82 77 178 129 221 121 16 -4 43 -17 60 -30z m-834 -6
c-14 -4 -32 -8 -40 -9 -13 -1 -13 0 0 9 8 5 26 9 40 9 l25 -1 -25 -8z m-897
-22 c-23 -8 -46 -8 -75 -1 -41 10 -40 11 32 11 66 0 71 -1 43 -10z m-748 -8
c16 -26 43 -29 71 -8 l29 22 -24 -27 c-14 -15 -32 -27 -41 -27 -19 0 -60 28
-60 41 0 12 17 12 25 -1z m1534 -18 c-47 -30 -95 -86 -101 -118 -3 -16 5 -20
57 -25 l60 -7 -69 2 c-65 1 -69 0 -78 -24 -6 -14 -12 -20 -15 -13 -6 15 39
101 74 143 30 36 80 70 102 70 8 0 -5 -13 -30 -28z m-2695 -26 c-8 -24 -35
-67 -59 -95 -25 -29 -59 -72 -76 -97 -18 -24 -34 -42 -36 -41 -6 7 26 85 53
128 23 37 121 149 130 149 1 0 -4 -20 -12 -44z m873 38 c-3 -3 -12 -4 -19 -1
-8 3 -5 6 6 6 11 1 17 -2 13 -5z m-37 -8 c0 -2 -7 -7 -16 -10 -8 -3 -12 -2 -9
4 6 10 25 14 25 6z m602 -141 l4 -37 -55 7 c-31 4 -62 12 -70 18 -15 13 -11
73 9 122 l12 30 48 -52 c34 -37 49 -62 52 -88z m892 57 c-70 -68 -114 -91
-187 -99 l-52 -6 35 38 c19 20 44 42 55 48 16 9 186 72 205 75 3 1 -22 -25
-56 -56z m411 48 c-11 -5 -27 -9 -35 -9 -9 0 -8 4 5 9 11 5 27 9 35 9 9 0 8
-4 -5 -9z m-1891 -21 c-8 -13 -74 -42 -81 -35 -3 2 15 13 39 24 53 25 51 24
42 11z m306 -15 c0 -2 -9 0 -20 6 -11 6 -20 13 -20 16 0 2 9 0 20 -6 11 -6 20
-13 20 -16z m1544 -9 c19 -14 19 -15 -7 -15 -17 0 -27 5 -27 15 0 19 9 19 34
0z m-1569 -15 c3 -5 -1 -10 -9 -10 -8 0 -18 5 -21 10 -3 6 1 10 9 10 8 0 18
-4 21 -10z m2048 -9 c18 -18 4 -18 -48 1 l-50 18 44 -4 c24 -3 48 -9 54 -15z
m-2005 -36 c-12 -37 -38 -60 -38 -35 0 15 41 83 46 77 3 -2 -1 -21 -8 -42z
m-378 10 c0 -1 -11 -5 -25 -7 -16 -3 -25 -1 -25 7 0 8 9 10 25 7 14 -2 25 -6
25 -7z m284 -43 c2 -22 -1 -32 -10 -32 -14 0 -20 51 -7 63 9 10 13 4 17 -31z
m-700 -64 c-23 -46 -59 -99 -78 -117 -20 -19 -36 -44 -36 -55 0 -16 -3 -17
-12 -8 -7 7 -20 12 -30 12 -22 0 -68 43 -68 62 0 7 10 1 21 -14 44 -59 121
-19 173 89 26 53 63 113 70 113 2 0 -16 -37 -40 -82z m2751 67 l30 -14 -40 6
c-22 3 -51 10 -65 14 -22 7 -21 7 10 8 19 0 49 -6 65 -14z m-2679 -17 c-8 -13
-29 -58 -46 -101 -18 -43 -34 -77 -36 -75 -5 5 45 137 64 170 9 15 20 28 24
28 5 0 2 -10 -6 -22z m-109 -20 c-3 -7 -5 -2 -5 12 0 14 2 19 5 13 2 -7 2 -19
0 -25z m3184 -44 c-28 -30 -50 -58 -50 -62 4 -25 -3 -32 -25 -26 -20 5 -25 1
-31 -23 -4 -15 -9 -23 -12 -16 -15 41 103 171 166 182 1 1 -20 -24 -48 -55z
m-3251 37 c0 -5 8 -17 17 -26 16 -16 17 -16 30 1 7 10 13 13 13 8 0 -17 -23
-34 -47 -34 -20 0 -21 -2 -11 -25 8 -19 8 -28 -3 -41 -11 -14 -15 -9 -25 43
-8 39 -8 62 -2 71 12 14 28 16 28 3z m2370 -1 c0 -5 -9 -10 -19 -10 -11 0 -23
5 -26 10 -4 6 5 10 19 10 14 0 26 -4 26 -10z m455 -10 c13 -6 -7 -8 -57 -7
-42 1 -71 5 -65 9 16 10 97 9 122 -2z m-550 -10 c3 -5 1 -10 -4 -10 -6 0 -11
5 -11 10 0 6 2 10 4 10 3 0 8 -4 11 -10z m829 -2 c-4 -7 -16 -26 -27 -41 -11
-16 -28 -50 -38 -75 -10 -26 -18 -40 -18 -32 0 33 65 160 82 160 4 0 5 -6 1
-12z m-2624 -18 c12 -8 11 -10 -7 -10 -13 0 -23 5 -23 10 0 13 11 13 30 0z
m1707 -16 c-3 -3 -12 -4 -19 -1 -8 3 -5 6 6 6 11 1 17 -2 13 -5z m633 -14 c9
-6 -5 -7 -41 -3 -41 4 -64 1 -90 -11 l-34 -17 24 21 c25 22 112 28 141 10z
m299 -45 c-12 -19 -27 -57 -34 -83 -7 -26 -14 -37 -14 -26 -1 29 26 104 46
126 24 27 25 22 2 -17z m-3183 -22 c-11 -11 -17 4 -9 23 7 18 8 18 11 1 2 -10
1 -21 -2 -24z m2804 32 c0 -2 -13 -11 -29 -19 -29 -16 -48 -45 -34 -55 4 -3 8
-13 8 -21 0 -8 8 -14 18 -14 22 2 17 -20 -6 -24 -20 -4 -53 58 -44 82 9 23 87
69 87 51z m10 -60 c-38 -28 -40 -29 -40 -15 0 10 47 39 64 40 6 0 -5 -11 -24
-25z m32 -75 c-14 -55 -28 -100 -32 -100 -8 0 27 155 41 182 5 10 11 18 12 18
2 0 -8 -45 -21 -100z m-2722 15 c-24 -29 -67 -46 -92 -36 l-23 10 26 0 c14 1
41 12 60 24 37 26 49 27 29 2z m-178 -53 c-14 -4 -72 45 -72 60 0 4 19 -7 43
-25 27 -20 38 -33 29 -35z m-72 -111 c0 -40 -13 -61 -25 -41 -9 15 4 80 15 80
6 0 10 -18 10 -39z m275 -47 c11 -32 11 -42 0 -54 -7 -8 -22 -34 -34 -57 -12
-24 -25 -43 -29 -43 -12 0 -69 99 -87 149 -18 53 -19 62 -2 56 6 -3 32 1 57 8
40 13 47 12 63 -3 10 -9 24 -34 32 -56z m34 46 c21 -29 61 -114 61 -128 0 -4
-16 22 -35 57 -19 35 -42 72 -51 82 -9 11 -13 19 -7 19 5 0 19 -14 32 -30z
m-255 -5 c-6 -16 -24 -21 -24 -7 0 11 11 22 21 22 5 0 6 -7 3 -15z m2990 -14
c7 -11 -52 -26 -62 -16 -8 8 18 25 40 25 9 0 19 -4 22 -9z m-2929 -50 c9 -28
34 -78 56 -113 26 -41 31 -53 13 -33 -27 32 -94 161 -94 182 0 25 9 12 25 -36z
m-27 -3 c3 -13 20 -50 37 -84 29 -58 29 -63 13 -73 -42 -26 -90 5 -129 81 -26
51 -25 78 4 78 12 0 29 5 37 10 23 15 31 12 38 -12z m3004 -81 c-15 -41 -16
-87 -1 -87 6 0 19 5 30 11 11 6 25 9 30 7 6 -2 -6 -11 -26 -21 -35 -17 -36
-17 -60 8 -30 29 -35 104 -9 130 15 15 18 15 32 1 14 -13 14 -21 4 -49z m481
16 c-17 -40 -23 -150 -11 -194 7 -25 6 -27 -40 -32 -56 -6 -68 2 -82 55 -14
49 -4 116 22 158 16 27 23 31 47 27 17 -4 36 0 47 8 30 23 34 18 17 -22z m32
-44 c-19 -53 -19 -100 0 -147 15 -35 15 -36 -2 -20 -22 23 -31 136 -13 178 19
45 31 36 15 -11z m-3556 -51 c19 -21 41 -38 49 -38 27 0 71 -30 66 -45 -9 -22
-17 -19 -73 25 -51 40 -111 113 -111 134 0 6 7 -1 16 -14 10 -14 33 -42 53
-62z m51 -110 c0 -14 -15 -9 -63 22 -51 32 -50 31 -41 54 5 12 16 7 55 -27 27
-23 49 -45 49 -49z m3157 40 c-2 -13 -4 -5 -4 17 -1 22 1 32 4 23 2 -10 2 -28
0 -40z m-40 20 c-3 -8 -6 -5 -6 6 -1 11 2 17 5 13 3 -3 4 -12 1 -19z m440 -2
c-6 -17 -31 -13 -35 6 -2 12 2 15 18 11 11 -3 19 -11 17 -17z m-501 -21 c-11
-8 -25 -15 -32 -15 -7 0 -20 -8 -30 -17 -13 -13 -16 -14 -13 -3 5 15 65 50 84
50 6 0 1 -7 -9 -15z"/>
<path d="M2312 4643 c-31 -6 -48 -36 -67 -116 -25 -106 -29 -103 138 -103
l142 1 49 96 c30 58 47 102 43 112 -6 15 -24 17 -144 16 -76 -1 -148 -4 -161
-6z m250 -31 c16 -7 14 -15 -19 -85 l-36 -77 -123 0 -122 0 15 68 c17 76 25
89 56 95 36 7 211 6 229 -1z"/>
<path d="M1625 3393 c12 -13 125 -46 132 -39 3 3 -21 12 -53 22 -33 9 -66 19
-74 22 -10 3 -12 2 -5 -5z"/>
<path d="M3983 3213 c-3 -10 -8 -22 -11 -28 -3 -5 4 -1 16 9 12 11 22 14 22 9
0 -6 -7 -16 -15 -23 -8 -7 -15 -19 -15 -27 0 -8 -4 -12 -9 -9 -13 8 -28 -35
-41 -116 -16 -110 6 -236 51 -284 17 -19 18 -22 4 -34 -20 -17 -9 -33 16 -20
28 15 48 62 65 147 26 137 13 331 -26 379 -17 19 -49 18 -57 -3z m66 -70 c25
-88 6 -255 -34 -307 -12 -16 -17 -17 -30 -6 -8 7 -15 21 -15 32 0 10 -4 17 -9
13 -24 -14 -24 174 0 230 9 19 5 -43 -7 -144 -4 -29 -2 -41 5 -36 6 3 11 32
11 64 0 152 52 252 79 154z m-20 -340 c-16 -43 -29 -55 -45 -42 -18 15 -18 30
0 23 9 -3 21 5 31 20 22 33 27 33 14 -1z"/>
<path d="M1572 3085 c0 -16 2 -22 5 -12 2 9 2 23 0 30 -3 6 -5 -1 -5 -18z"/>
<path d="M2302 3083 c-9 -17 -15 -94 -28 -370 l-7 -131 -33 5 c-39 6 -55 -16
-33 -45 12 -16 12 -16 -6 1 -19 17 -19 18 -1 65 11 26 20 65 22 87 1 23 0 28
-3 11 -2 -15 -13 -42 -24 -60 -25 -40 -24 -66 5 -148 27 -75 60 -128 82 -128
17 0 114 70 114 83 0 5 -7 15 -15 24 -9 8 -14 20 -12 26 8 24 57 49 103 53
l49 3 -42 -8 c-75 -13 -104 -57 -30 -47 23 3 52 6 65 6 13 0 34 8 49 17 22 15
25 22 20 60 -5 49 -36 90 -71 95 -20 3 -21 9 -26 163 l-6 160 -2 -153 c-2
-160 4 -192 38 -192 24 0 50 -37 50 -72 0 -26 -2 -27 -27 -17 -16 6 -68 7
-135 3 -95 -6 -108 -5 -114 10 -9 23 24 488 35 499 5 5 17 7 27 3 15 -6 16
-18 10 -124 -16 -288 -14 -370 3 -137 10 141 14 247 9 258 -5 9 -20 17 -33 17
-13 0 -28 -8 -33 -17z m-43 -537 l23 -24 -35 16 c-27 14 -32 28 -11 32 0 0 11
-11 23 -24z m47 -57 c19 -22 19 -22 -3 -10 -24 12 -39 31 -25 31 5 0 17 -10
28 -21z"/>
<path d="M1580 3034 c0 -10 5 -26 10 -34 8 -11 9 -7 4 15 -8 37 -14 45 -14 19z"/>
<path d="M2055 2924 c-33 -18 -83 -40 -112 -49 -50 -16 -52 -16 -137 12 -47
16 -86 28 -86 26 0 -5 60 -33 106 -49 28 -9 64 -14 86 -11 38 5 167 61 211 92
39 27 -6 14 -68 -21z"/>
<path d="M2175 2910 c-10 -11 -16 -22 -13 -25 3 -3 13 4 23 15 10 11 16 22 13
25 -3 3 -13 -4 -23 -15z"/>
<path d="M2223 2785 c0 -22 2 -30 4 -17 2 12 2 30 0 40 -3 9 -5 -1 -4 -23z"/>
<path d="M1810 2536 c0 -2 8 -10 18 -17 15 -13 16 -12 3 4 -13 16 -21 21 -21
13z"/>
<path d="M2173 2241 c-83 -38 -93 -51 -43 -51 15 0 35 -8 44 -19 9 -10 45 -32
79 -47 88 -41 186 -41 274 0 34 15 69 36 77 45 10 11 -11 4 -52 -16 -106 -53
-224 -57 -294 -9 -19 12 -38 21 -44 19 -6 -2 -18 5 -28 16 -18 20 -16 20 249
18 254 -2 265 -1 244 15 -11 10 -25 15 -30 12 -5 -3 -51 10 -103 28 -88 31
-96 32 -143 20 -36 -9 -57 -10 -77 -2 -44 16 -66 12 -153 -29z m362 0 l50 -18
-89 0 c-89 0 -89 0 -67 19 28 22 41 22 106 -1z m-265 -1 c0 -5 -8 -10 -19 -10
-10 0 -34 -3 -52 -6 l-34 -5 25 15 c28 17 80 21 80 6z"/>
<path d="M2270 2041 c0 -9 168 -21 184 -12 5 2 1 8 -10 12 -27 11 -174 11
-174 0z"/>
<path d="M1825 3070 c10 -11 20 -20 23 -20 3 0 -3 9 -13 20 -10 11 -20 20 -23
20 -3 0 3 -9 13 -20z"/>
<path d="M3725 2510 c-8 -13 5 -13 25 0 13 8 13 10 -2 10 -9 0 -20 -4 -23 -10z"/>
<path d="M3341 2574 c0 -11 3 -14 6 -6 3 7 2 16 -1 19 -3 4 -6 -2 -5 -13z"/>
<path d="M3326 2524 c-4 -14 -5 -28 -3 -31 3 -2 8 8 11 23 4 14 5 28 3 31 -3
2 -8 -8 -11 -23z"/>
<path d="M3297 2428 c-9 -29 -15 -54 -13 -56 2 -2 12 20 21 48 9 28 15 53 13
55 -2 3 -12 -19 -21 -47z"/>
<path d="M3256 2320 c-9 -22 -28 -59 -43 -83 -14 -23 -19 -36 -11 -29 18 14
82 141 75 148 -2 3 -12 -13 -21 -36z"/>
<path d="M2995 1279 c-11 -17 1 -21 15 -4 8 9 8 15 2 15 -6 0 -14 -5 -17 -11z"/>
<path d="M4234 1408 c-8 -12 16 -39 27 -32 15 9 10 41 -6 41 -9 0 -18 -4 -21
-9z"/>
<path d="M4155 1317 c-102 -55 -187 -118 -252 -185 -35 -35 -63 -69 -63 -74 0
-6 30 21 68 59 122 125 307 231 382 219 24 -4 30 -3 20 4 -31 20 -94 10 -155
-23z"/>
<path d="M3433 1212 c-51 -20 -103 -46 -116 -57 -13 -11 -18 -17 -11 -12 6 4
54 25 107 46 52 21 103 44 113 50 38 21 -3 10 -93 -27z"/>
<path d="M2096 654 c-9 -20 -15 -38 -13 -40 2 -2 53 -6 115 -10 82 -5 112 -4
112 4 0 8 -33 12 -105 12 -58 0 -105 3 -105 8 1 26 22 31 130 34 80 2 115 7
118 16 3 9 -25 12 -115 12 l-119 0 -18 -36z"/>
<path d="M1916 951 c4 -38 17 -57 33 -47 18 12 12 36 -8 36 -12 0 -21 8 -24
23 -2 12 -3 7 -1 -12z"/>
<path d="M2791 928 c-29 -16 -38 -36 -18 -44 16 -6 79 26 81 41 2 15 -36 17
-63 3z"/>
<path d="M4454 1061 c-141 -81 -297 -305 -298 -426 0 -42 6 -59 40 -110 23
-33 63 -96 89 -139 101 -165 275 -386 306 -386 14 0 0 23 -62 96 -107 127
-186 234 -255 347 -31 51 -68 106 -81 123 -28 38 -29 77 -2 148 45 121 162
264 279 340 66 43 55 47 -16 7z"/>
<path d="M4821 810 c-73 -27 -146 -79 -245 -175 -99 -97 -166 -180 -166 -205
0 -52 315 -430 358 -430 10 0 -13 31 -59 78 -141 143 -257 288 -273 339 -6 18
7 37 76 109 205 213 357 294 473 251 22 -8 49 -18 60 -22 14 -5 11 2 -12 23
-32 31 -87 52 -133 52 -14 -1 -49 -9 -79 -20z"/>
<path d="M1514 788 c-23 -11 -44 -48 -44 -77 0 -37 46 -34 93 7 23 20 22 59
-2 72 -23 12 -20 12 -47 -2z m53 -25 c6 -16 -41 -63 -62 -63 -20 0 -19 38 2
62 18 20 54 21 60 1z"/>
<path d="M3176 731 c5 -25 2 -37 -16 -56 -13 -14 -32 -25 -42 -25 -25 0 -36
30 -15 42 20 11 23 30 3 22 -7 -3 -18 -16 -24 -28 -22 -49 37 -63 87 -20 34
28 40 64 16 84 -13 11 -14 8 -9 -19z"/>
<path d="M5012 703 c9 -10 36 -52 62 -93 32 -52 46 -68 46 -52 0 25 -39 93
-78 135 -28 29 -55 38 -30 10z"/>
<path d="M3308 454 c-37 -19 -46 -58 -22 -86 11 -11 15 -23 9 -24 -42 -15
-339 -189 -372 -218 -53 -46 -110 -126 -90 -126 7 0 20 12 28 26 39 73 266
223 484 319 96 42 113 67 75 105 -24 24 -73 26 -112 4z m91 -18 c15 -18 5 -41
-25 -55 -35 -16 -71 -14 -78 5 -7 18 8 50 26 57 25 10 66 7 77 -7z"/>
<path d="M1550 77 c41 -42 79 -77 84 -77 13 0 -68 83 -119 122 -25 20 -12 3
35 -45z"/>
<path d="M2620 87 c-120 -55 -179 -86 -162 -87 7 0 36 12 65 27 29 14 90 43
137 64 47 21 78 39 70 39 -8 0 -58 -20 -110 -43z"/>
<path d="M2610 37 c-66 -28 -72 -32 -45 -35 29 -4 145 44 145 60 0 14 -22 8
-100 -25z"/>
</g>
</svg>